/* XPM */
static char *_498ef1e33eb443dad6f69582a3352ddppJjflJC7jSPb1nY[] = {
/* columns rows colors chars-per-pixel */
"64 64 201 2 ",
"   c #010333",
".  c #0B0933",
"X  c #130D33",
"o  c #1A1133",
"O  c #281A33",
"+  c #311F33",
"@  c #3A2533",
"#  c #402833",
"$  c #492D33",
"%  c #4F3133",
"&  c #533333",
"*  c #5A3733",
"=  c #613B33",
"-  c #6C4233",
";  c #714533",
":  c #7C4C33",
">  c #7A5C49",
",  c #79604D",
"<  c #6E6355",
"1  c #726455",
"2  c #7A6955",
"3  c #776B5C",
"4  c #7B7060",
"5  c #8B4F33",
"6  c #8E5434",
"7  c #975836",
"8  c #A6502D",
"9  c #A35231",
"0  c #A76737",
"q  c #B66D35",
"w  c #BD7233",
"e  c #D94D0D",
"r  c #DB510F",
"t  c #D65215",
"y  c #DD5511",
"u  c #DF5A14",
"i  c #D3591E",
"p  c #DE5E1D",
"a  c #E15D15",
"s  c #E15F18",
"d  c #E36117",
"f  c #E4651A",
"g  c #E76A1B",
"h  c #E96D1D",
"j  c #EB711F",
"k  c #CF5F27",
"l  c #CF5F28",
"z  c #D15C24",
"x  c #CF6029",
"c  c #CF6A2F",
"v  c #D66426",
"b  c #D2652B",
"n  c #D46A2D",
"m  c #D96C2B",
"M  c #CD702E",
"N  c #D5752D",
"B  c #DE722C",
"V  c #CC6633",
"C  c #C36D31",
"Z  c #CE6932",
"A  c #D46D32",
"S  c #D86F30",
"D  c #C67436",
"F  c #CC7B33",
"G  c #D67032",
"H  c #DA7433",
"J  c #D17E33",
"K  c #DD7A34",
"L  c #E46B26",
"P  c #ED7521",
"I  c #EF7A24",
"U  c #E7752B",
"Y  c #E2752D",
"T  c #E57B2D",
"R  c #EB7C2B",
"E  c #F17D25",
"W  c #E37D33",
"Q  c #E97933",
"!  c #E97B35",
"~  c #815A44",
"^  c #895E47",
"/  c #985F43",
"(  c #886149",
")  c #986444",
"_  c #93644B",
"`  c #99734D",
"'  c #836B55",
"]  c #8B6B52",
"[  c #866F5C",
"{  c #906D50",
"}  c #84705E",
"|  c #A6764B",
" . c #AA7549",
".. c #B57D44",
"X. c #817563",
"o. c #84796A",
"O. c #DC7048",
"+. c #DF7C55",
"@. c #E07F59",
"#. c #D68437",
"$. c #ED832E",
"%. c #F38127",
"&. c #F4852A",
"*. c #F4892D",
"=. c #F88C2D",
"-. c #FB912F",
";. c #EB8533",
":. c #EE8B33",
">. c #E98439",
",. c #F58B30",
"<. c #F38C31",
"1. c #F48D3B",
"2. c #F59132",
"3. c #FA9432",
"4. c #FF9933",
"5. c #FF9D3B",
"6. c #BF8142",
"7. c #AC8153",
"8. c #8E8373",
"9. c #938877",
"0. c #AD9375",
"q. c #C18243",
"w. c #DA8E41",
"e. c #C28D54",
"r. c #E58241",
"t. c #EC8643",
"y. c #EE8A44",
"u. c #ED8C4C",
"i. c #F28D41",
"p. c #F08F48",
"a. c #EF904E",
"s. c #F39144",
"d. c #F1914A",
"f. c #EB8E55",
"g. c #E1845F",
"h. c #E78C5E",
"j. c #E98D59",
"k. c #EE9050",
"l. c #EC925C",
"z. c #F19655",
"x. c #FFA244",
"c. c #FFA64D",
"v. c #FFAC58",
"b. c #C18164",
"n. c #E38A64",
"m. c #E48D69",
"M. c #EB9665",
"N. c #E5916E",
"B. c #E69572",
"V. c #E79876",
"C. c #EA9D75",
"Z. c #E89D7C",
"A. c #FFB467",
"S. c #E9A07F",
"D. c #F2A771",
"F. c #FFBC77",
"G. c #A79C8A",
"H. c #BAAE9C",
"J. c #BCB19F",
"K. c #E9A383",
"L. c #ECAB8B",
"P. c #E5AD91",
"I. c #ECAF90",
"U. c #EEB294",
"Y. c #EFB699",
"T. c #EFB99C",
"R. c #F3B992",
"E. c #F0BB9F",
"W. c #F0BDA1",
"Q. c #FDC48D",
"!. c #FFCB93",
"~. c #FFD19F",
"^. c #D1C1AC",
"/. c #D3C8B6",
"(. c #D8CCBA",
"). c #F2C2A6",
"_. c #F2C5AA",
"`. c #F3C8AE",
"'. c #FED6A9",
"]. c #F4CCB3",
"[. c #FFDDB5",
"{. c #F6D3B9",
"}. c #F6D3BB",
"|. c #F7D5BD",
" X c #FFE1BC",
".X c #DCD1C0",
"XX c #F7D7C0",
"oX c #F7D9C2",
"OX c #F8DBC4",
"+X c #F9DFC9",
"@X c #ECE1CF",
"#X c #FFE3C1",
"$X c #FAE3CD",
"%X c #FFE9CC",
"&X c #F2E7D5",
"*X c #FBE6D1",
"=X c #FCEAD6",
"-X c #FDEEDA",
";X c #FDEFDB",
":X c #FEF1DE",
">X c #FFF4E1",
/* pixels */
">X>X>X>X>X>X>X>X>X>X>X>X>X>X>X>X>X>X>X>X>X>X>X>X>X>X>X>X>X>X>X>X>X>X>X>X>X>X>X>X>X>X>X>X>X>X>X>X>X>X>X>X>X>X>X>X>X>X>X>X>X>X>X>X",
">X>X>X>X>X>X>X>X>X>X>X>X>X>X>X>X>X>X>X>X>X-X$X|.+X*X-X>X>X>X>X>X>X>X>X>X>X>X>X>X>X>X>X>X>X>X>X>X>X>X>X>X>X>X>X>X>X>X>X>X>X>X>X>X",
">X>X>X>X>X>X>X>X>X>X>X>X>X>X>X>X>X>XOXE.L.T.oX-X>X>X>X>X>X>X*X$XOX+X=X:X>X>X>X>X>X>X>X>X>X>X>X>X>X>X>X>X>X>X>X>X>X>X>X>X>X>X>X>X",
">X>X>X>X>X>X>X>X>X>X>X>X>X>X>X*XE.B.L.|.>X>X:X%X X'.Q.D.z.a.a.a.k.f.f.j.B.L.W.$X>X>X>X>X>X:X>X>X>X>X>X>X>X>X>X>X>X>X>X>X>X>X>X>X",
">X>X>X>X>X>X>X>X>X>X>X>X>X=XU.n.L.$X:X%X#X[.[.R.C.h.h.n.n.h.h.h.j.f.k.d.d.d.f.h.Z._.:X>X>X=X*X>X>X>X>X>X>X>X>X>X>X>X>X>X>X>X>X>X",
">X>X>X>X>X>X>X>X>X>X>X>X].m.B.|.>X:X-X>X>XoXZ.n.n.n.n.n.n.n.h.j.f.j.h.h.h.j.a.d.d.j.N.).:X>X$X|.>X>X>X>X>X>X>X>X>X>X>X>X>X>X>X>X",
">X>X>X>X>X>X>X>X>X>X>XY.n.K.=X>X>X>X>X=XI.n.n.n.n.n.f.t.$.R E E E E %.%.&.1.u.f.k.d.d.h.V.XX>X*X).>X>X>X>X>X>X>X>X>X>X>X>X>X>X>X",
">X>X>X>X>X>X>X>X>X:XI.n.U.:X>X>X>X>XOXB.n.n.n.h.t.R I I I I I E E E %.%.%.&.&.=.1.u.d.d.f.n.Y.:X$XY.>X>X>X>X>X>X>X>X>X>X>X>X>X>X",
">X>X>X>X>X>X>X>X>XY.n.Y.>X>X>X>X>X|.m.n.n.n.t.U h j P I I I E %.%.%.%.%.%.%.&.&.&.=.1.d.d.a.n.L.-XOXL.>X>X>X>X>X>X>X>X>X>X>X>X>X",
">X>X>X>X>X>X>X>X].n.L.>X>X>X>X>X{.n.n.n.f.R h h h j E =.3.<.:.;.;.<.2.3.<.&.R &.&.=.=.=.i.d.d.n.K.-X].L.>X>X>X>X>X>X>X>X>X>X>X>X",
">X>X>X>X>X>X>X=XN.V.-X>X>X>X>X|.m.n.n.y.L g g j &.<.;.K H H H H H H H H W ;.3.<.T %.=.=.=.1.d.a.n.K.:XK._.>X>X>X>X>X>X>X>X>X>X>X",
">X>X>X>X>X>X>XI.m.+X>X>X>X>X$Xm.n.n.t.g g g %.3.W H H H H H H H H H H H H H H ;.3.;.Y &.=.=.1.d.k.n.I.>X+.*X>X>X>X>X>X>X>X>X>X>X",
">X>X>X>X>X>X$Xn.).>X>X>X>X:XZ.n.n.t.g f h =.;.H H H H H n n b b b b b n S H H H H <.3.H $.=.=.1.d.f.n.].OX@.>X>X>X>X>X>X>X>X>X>X",
">X>X>X>X>X>XY.N.-X>X>X>X>XW.n.n.u.f f h 3.W H H H S b x x x x x x x x x x x b S H H :.3.H T =.=.1.d.n.N.=Xn.`.>X>X>X>X>X>X>X>X>X",
">X>X>X>X>X:Xm.).>X>X>X>X$Xm.n.f.L d h 3.W H H S b x x x x m T :.<.3.<.&.$.Y n x b G H ;.4.H Y =.=.s.k.n.L.*XO.>X>X>X>X>X>X>X>X>X",
">X>X>X>X>X{.m.-X>X>X>X>XU.n.n.! a f 3.W H H n x x x x B <.:.0 ; = = : w 2.3.<.$.m x S H <.3.G T =.-.d.h.n.OXm.].>X>X>X>X>X>X>X>X",
">X>X>X>X>XU.Y.>X>X>X>X*Xn.n.u.s a =.;.H H n x x x n <.J * .             X ; ;.2.<.T b n H 3.3.A $.=.1.k.n.L.$X+.>X>X>X>X>X>X>X>X",
">X>X>X>X>XV.OX>X>X>X>XW.n.h.Q a I 3.H H n x x x m 3.6 .                     o w 3.<.$.b n W 4.;.A =.=.s.n.n.$XO.-X>X>X>X>X>X>X>X",
">X>X>X>X=XB.>X>X>X>X>XV.n.u.a a 3.;.H n x x x m 3.=                           . 7 3.<.&.b S <.4.G Y =.1.f.n.E.L.W.>X>X>X>X>X>X>X",
">X>X>X>XOXU.>X>X>X>X$Xn.n.! y I 3.H G x x x n 3.:                                 q <.<.$.b W 4.:.V &.<.a.n.V.$Xm.>X>X>X>X>X>X>X",
">X>X>X>X].].>X>X>X>X_.n.f.L y 3.;.H b x x x <.F                                   o 2.<.<.T n 3.4.A Y =.s.n.n.$Xg.>X>X>X>X>X>X>X",
">X>X>X>X).*X>X>X>X>XU.n.a.u g 4.W S x x x B 3.#                                     : 3.<.<.n ;.4.W A =.1.j.n.`.m.>X>X>X>X>X>X>X",
">X>X>X>X).>X>X>X>X>XK.n.i.y E 4.H b x x b *.#.                                      o 3.<.<.T Y 4.<.V $.1.f.n.Y.K.*X>X>X>X>X>X>X",
">X>X>X>X].>X>X>X>X>XB.h.>.r =.3.H x x x m <.6                                         F <.<.<.v 4.3.V Y ,.a.n.K.).{.>X>X>X>X>X>X",
">X>X>X>XoX>X>X>X>X>Xm.j.! r 3.<.S x x x T 3.*                                         7 <.<.<.m -.4.S S =.d.n.B.OX`.>X>X>X>X>X>X",
">X>X>X>X$X>X>X>X>X>Xm.f.Q y 4.<.n x x x $.3.#                                         : 2.<.<.Y %.4.H A &.d.n.m.-X).>X>X>X>X>X>X",
">X>X>X>X:X>X>X>X>X>XN.f.Q u 4.<.b x x x *.3.@                                         : 2.<.<.T I 4.H V &.d.n.n.>X_.>X>X>X>X>X>X",
">X>X>X>X>X>X>X>X>X>XB.f.Q a 4.2.b x x x <.3.&                                         6 <.<.<.$.j 4.H V &.d.n.n.>X{.>X>X>X>X>X>X",
">X>X>X>X>X>X>X>X>X>XS.j.! y 4.3.b x x x <.2.:                                         w <.<.<.$.h 4.H V &.d.n.N.>X+X>X>X>X>X>X>X",
">X>X>X>X>X>X>X>X:X>XU.j.t.e 4.4.n x x x $.<.D                                       . 2.<.<.<.I j 4.S V :.d.n.V.>X=X>X>X>X>X>X>X",
">X>X>X>X>X>X>X>X[.>X).h.d.e =.4.Y x x x $.<.3.O                                     - 3.<.<.<.P I 4.Z A 1.a.n.K.>X>X>X>X>X>X>X>X",
">X>X>X>X>X>X>X>XQ.>X+Xn.d.p E 4.R x x x Y <.<.0                                   . #.<.<.<.*.f &.2.V m i.f.n.Y.>X>X>X>X>X>X>X>X",
">X>X>X>X>X>X>X>XF.-X>XB.d.U g 4.=.z x x m <.<.3.%                                 6 3.<.<.<.*.r 3.;.V Y d.j.n.].>X>X>X>X>X>X>X>X",
">X>X>X>X>X>X>X>X!.~.>XT.f.y.e 3.4.p x x x $.<.<.:.+                             = 3.<.<.<.*.I a 4.G V >.d.n.n.=X>X>X>X>X>X>X>X>X",
">X>X>X>X>X>X>X>X Xv.>X+Xh.d.p E 4.j z x x B <.<.<.2.&                         5 3.<.<.<.<.=.u I <.V A i.k.n.S.>X>X>X>X>X>X>X>X>X",
">X>X>X>X>X>X>X>X:X5.[.>XK.d.>.y 4.-.y k x x $.<.<.<.3.0 O                 # F 3.<.<.<.<.*.j y 3.H V H d.j.n._.>X>X>X>X>X>X>X>X>X",
">X>X>X>X>X>X>X>X>XF.A.>XOXj.d.p I 4.j t l x n *.<.<.<.<.3.q - $ # # % : F 3.<.<.<.<.<.*.E r I <.V V y.d.n.m.=X>X>X>X>X>X>X>X>X>X",
">X>X>X>X>X>X>X>X>X X4.[.>XL.d.y.y 3.3.y t l x m <.<.<.<.<.<.3.3.3.3.3.2.<.<.<.<.<.<.*.%.y a 3.S V K d.j.n.U.>X>X>X>X>X>X>X>X>X>X",
">X>X>X>X>X>X>X>X>X>XA.v.:X=XM.d.! f 4.&.e t z x m *.<.<.<.<.<.<.<.<.<.<.<.<.<.<.<.*.%.y r =.W V A p.a.n.n.$X>X>X>X>X>X>X>X>X>X>X",
">X>X>X>X>X>X>X>X>X>X X4.!.>X{.f.d.L U 4.E e e i l b $.<.<.<.<.<.<.<.<.<.<.<.<.*.=.I y r &.;.V V y.d.n.n.Y.>X>X>X>X>X>X>X>X>X>X>X",
">X>X>X>X>X>X>X>X>X>X>XF.5. X>XY.a.d.L U 4.%.r e t z b Y $.<.<.<.<.<.<.<.<.*.*.I d e y &.;.V V r.d.M.N.N.=X>X>X>X>X>X>X>X>X>X>X>X",
">X>X>X>X>X>X>X>X>X>X>X-Xx.x.%X:XL.d.d.L Y 3.=.y e e e t i v T $.<.*.*.&.I g y e e a =.W V V r.d.l.Y.n.].>X>X>X>X>X>X>X>X>X>X>X>X",
">X>X>X>X>X>X>X>X>X>X>X>X[.5.c.-X:XU.d.d.m n <.3.I r e e e e e e e r r e e e e y I <.G V V r.d.M.{.N.U.>X>X>X>X>X>X>X>X>X>X>X>X>X",
">X>X>X>X>X>X>X>X>X>X>X>X>X[.5.c.%X>X_.a.>.N x H 2.3.I u e e e e e e e e e a I 3.W V V A t.d.C.*XL.Z.-X>X>X>X>X>X>X>X>X>X>X>X>X>X",
">X>X>X>X>X>X>X>X>X>X>X>X>X>X[.5.x. X>XOXM.K K m b H ;.3.-.%.I h g h I &.-.;.H Z V V G y.d.U.:X).N.*X>X>X>X>X>X>X>X>X>X>X>X>X>X>X",
">X>X>X>X>X>X>X>X>X>X>X>X>X>X>X Xc.5.!.>XJ.) N N N n c V A H W W W W H S V V V Z A N N D |.>X{.N.+X>X>X:X>X>X>X>X>X>X>X>X>X>X>X>X",
">X>X>X>X>X>X>X>X>X>X>X>X>X>X>X>X-XA.4.v.0.< 1 0 M N N N N A Z Z Z Z Z Z Z n N N N q ( < :XOXV.$X>X>X-X-X>X>X>X>X>X>X>X>X>X>X>X>X",
">X>X>X>X>X>X>X>X>X>X>X>X>X>X>X>X>X>X'.x.4.6.2 < 1 _ q M N N N N N N N N N N C 0 , < < < oXK.*X>X>X$X*X>X>X>X>X>X>X>X>X>X>X>X>X>X",
">X>X>X>X>X>X>X>X>X>X>X>X>X>X>X>X>X>X>X^.e.2.2...' 3 3 3 ' ` |  . . . .| { 2 3 3 3 3 3 ( b.-X>X>X|.$X>X>X>X>X>X>X>X>X>X>X>X>X>X>X",
">X>X>X>X>X>X>X>X>X>X>X>X>X>X>X>X>X>X(.X.X.X.7.w.3.w.7.X.X.X.X.X.X.X.X.X.X.X.X.X.X.X._ _ X.J.-X).*X>X>X>X>X>X>X>X>X>X>X>X>X>X>X>X",
">X>X>X>X>X>X>X>X>X>X>X>X>X>X>X>X>X>Xo.1 1 1 1 1 2 ` q.#.q. .] 1 1 1 1 1 1 1 1 1 1 ~ 1 1 1 ^ P.-X>X>X>X>X>X>X>X>X>X>X>X>X>X>X>X>X",
">X>X>X>X>X>X>X>X>X>X>X>X>X>X>X>X>X>Xo.< < < 1 < < < < < < < 2 ' < < < < < < < < , < < > 6 ~ @X>X>X>X>X>X>X>X>X>X>X>X>X>X>X>X>X>X",
">X>X>X>X>X>X>X>X>X>X>X>X>X>X>X>X>X>Xo.< < < 1 > > 1 < < < < < < < < < < < < < < 1 ~ 6 6 > < @X>X>X>X>X>X>X>X>X>X>X>X>X>X>X>X>X>X",
">X>X>X>X>X>X>X>X>X>X>X>X>X>X>X>X:XG.X.X.X.X.X.X.} _ / _ ] [ X.X.X.X.X.X.} ] _ 7 9 ) [ X.X.X.9.&X>X>X>X>X>X>X>X>X>X>X>X>X>X>X>X>X",
">X>X>X>X>X>X>X>X>X>X>X>X>X>X>X>XH.4 4 4 4 4 4 4 4 4 4 ' ( 7 7 9 9 9 8 8 9 7 ^ ' 4 4 4 4 4 4 4 9.:X>X>X>X>X>X>X>X>X>X>X>X>X>X>X>X",
">X>X>X>X>X>X>X>X>X>X>X>X>X>X>X>X8.< < < < < < < < < < < < < < < < 1 1 < < < < < < < < < < < < < -X>X>X>X>X>X>X>X>X>X>X>X>X>X>X>X",
">X>X>X>X>X>X>X>X>X>X>X>X>X>X>X>X8.< < < < < < < < < < < < < < < < < < < < < < < < < < < < < < < -X>X>X>X>X>X>X>X>X>X>X>X>X>X>X>X",
">X>X>X>X>X>X>X>X>X>X>X>X>X>X>X>X.X/././././././././././././././././././././././././././././././.:X>X>X>X>X>X>X>X>X>X>X>X>X>X>X>X",
">X>X>X>X>X>X>X>X>X>X>X>X>X>X>X>X>X>X>X>X>X>X>X>X>X>X>X>X>X>X>X>X>X>X>X>X>X>X>X>X>X>X>X>X>X>X>X>X>X>X>X>X>X>X>X>X>X>X>X>X>X>X>X>X",
">X>X>X>X>X>X>X>X>X>X>X>X>X>X>X>X>X>X>X>X>X>X>X>X>X>X>X>X>X>X>X>X>X>X>X>X>X>X>X>X>X>X>X>X>X>X>X>X>X>X>X>X>X>X>X>X>X>X>X>X>X>X>X>X",
">X>X>X>X>X>X>X>X>X>X>X>X>X>X>X>X>X>X>X>X>X>X>X>X>X>X>X>X>X>X>X>X>X>X>X>X>X>X>X>X>X>X>X>X>X>X>X>X>X>X>X>X>X>X>X>X>X>X>X>X>X>X>X>X",
">X>X>X>X>X>X>X>X>X>X>X>X>X>X>X>X>X>X>X>X>X>X>X>X>X>X>X>X>X>X>X>X>X>X>X>X>X>X>X>X>X>X>X>X>X>X>X>X>X>X>X>X>X>X>X>X>X>X>X>X>X>X>X>X",
">X>X>X>X>X>X>X>X>X>X>X>X>X>X>X>X>X>X>X>X>X>X>X>X>X>X>X>X>X>X>X>X>X>X>X>X>X>X>X>X>X>X>X>X>X>X>X>X>X>X>X>X>X>X>X>X>X>X>X>X>X>X>X>X",
">X>X>X>X>X>X>X>X>X>X>X>X>X>X>X>X>X>X>X>X>X>X>X>X>X>X>X>X>X>X>X>X>X>X>X>X>X>X>X>X>X>X>X>X>X>X>X>X>X>X>X>X>X>X>X>X>X>X>X>X>X>X>X>X"
};
