/* XPM */
static char *_5dd9b095f1542d2ff99c09cc26c0d4aXMZTBrsHJh7pLvoV[] = {
/* columns rows colors chars-per-pixel */
"64 64 128 2 ",
"   c #37363B",
".  c #39393C",
"X  c #474D41",
"o  c #484F42",
"O  c #4B5343",
"+  c #4F5944",
"@  c #525E45",
"#  c #566347",
"$  c #576448",
"%  c #586648",
"&  c #5C6D4A",
"*  c #63764D",
"=  c #677C4E",
"-  c #0FB765",
";  c #00BF63",
":  c #0CB965",
">  c #14B767",
",  c #15BD62",
"<  c #1ABC61",
"1  c #1BB76A",
"2  c #15BE6B",
"3  c #1CBC6D",
"4  c #23BE70",
"5  c #2BBC72",
"6  c #728C52",
"7  c #769254",
"8  c #7D9C57",
"9  c #7F9F58",
"0  c #1BC263",
"q  c #14C06B",
"w  c #1FC170",
"e  c #23C363",
"r  c #29C463",
"t  c #26C965",
"y  c #2AC865",
"u  c #34C965",
"i  c #3ECD66",
"p  c #25C273",
"a  c #2AC175",
"s  c #32C077",
"d  c #34C279",
"f  c #3FC07D",
"g  c #44CD65",
"h  c #4CCD65",
"j  c #4AD267",
"k  c #4BD868",
"l  c #50D367",
"z  c #5BD467",
"x  c #53D668",
"c  c #58D768",
"v  c #5BDA69",
"b  c #60D166",
"n  c #60D768",
"m  c #64DB69",
"M  c #6EDD6A",
"N  c #75DC69",
"B  c #7BDB69",
"V  c #86A95A",
"C  c #8AAF5C",
"Z  c #92BB5F",
"A  c #94BD60",
"S  c #97C261",
"D  c #9AC662",
"F  c #9ECC64",
"G  c #84DC69",
"H  c #A3D366",
"J  c #A6D867",
"K  c #A8DA67",
"L  c #A7DA68",
"P  c #A9DC68",
"I  c #86E36B",
"U  c #8CE36B",
"Y  c #95E46B",
"T  c #9BE56B",
"R  c #93EA6C",
"E  c #9CED6E",
"W  c #9FF06E",
"Q  c #AEE46B",
"!  c #A1EF6E",
"~  c #B4EC6D",
"^  c #A4F16E",
"/  c #AAF26F",
"(  c #B5F66F",
")  c #BAF46F",
"_  c #AFF970",
"`  c #B5FB71",
"'  c #BDFB71",
"]  c #C1FF72",
"[  c #46C782",
"{  c #4DC484",
"}  c #5CC58B",
"|  c #55CE8C",
" . c #5BCC8D",
".. c #67CA91",
"X. c #6CCE95",
"o. c #7CD59E",
"O. c #83D6A2",
"+. c #8BD5A5",
"@. c #90D3A6",
"#. c #95D7A9",
"$. c #9FD5AD",
"%. c #97D9AB",
"&. c #9CDAAE",
"*. c #A2DAB0",
"=. c #A8DDB4",
"-. c #B5D9B7",
";. c #B4DEB9",
":. c #BCDFBD",
">. c #BCE1BE",
",. c #C5DEC0",
"<. c #C6E1C2",
"1. c #CBE4C5",
"2. c #D2E3C7",
"3. c #DBE7CC",
"4. c #D7E8CB",
"5. c #DAE8CD",
"6. c #E5ECD3",
"7. c #E9EBD4",
"8. c #E9EDD5",
"9. c #ECECD6",
"0. c #EFEFD8",
"q. c #F6EEDB",
"w. c #F3F0DA",
"e. c #F4F0DB",
"r. c #F6F2DC",
"t. c #FAF3DE",
"y. c #FCF3E0",
"u. c #FFF4E1",
/* pixels */
"u.u.u.u.u.u.u.u.u.u.u.u.u.u.u.u.u.u.u.u.u.u.u.u.u.u.u.u.u.u.u.u.u.u.u.u.u.u.u.u.u.u.u.u.u.u.u.u.u.u.u.u.u.u.u.u.u.u.u.u.u.u.u.u.",
"u.u.u.u.u.u.u.u.u.u.u.u.u.u.u.u.u.u.u.u.u.u.u.u.u.u.u.u.u.u.u.u.u.u.u.u.u.u.u.u.u.u.u.u.u.u.u.u.u.u.u.u.u.u.u.u.u.u.u.u.u.u.u.u.",
"u.u.u.u.u.u.u.u.u.u.u.u.u.u.u.u.u.u.u.u.u.u.u.u.u.u.u.u.u.u.u.u.u.u.u.u.u.u.u.u.u.u.u.u.u.u.u.u.u.u.u.u.u.u.u.u.u.u.u.u.u.u.u.u.",
"u.u.u.u.u.u.u.u.u.u.u.u.u.u.u.u.u.u.u.u.u.u.u.u.u.u.u.u.u.u.u.u.u.u.u.u.u.u.u.u.u.u.u.u.u.u.u.u.u.u.u.u.u.u.u.u.u.u.u.u.u.u.u.u.",
"u.u.u.u.u.u.u.u.u.u.u.u.u.u.u.u.u.u.u.u.u.u.u.u.u.u.u.u.u.u.u.u.u.u.u.u.u.u.u.u.u.u.u.u.u.u.u.u.u.u.u.u.u.u.u.u.u.u.u.u.u.u.u.u.",
"u.u.u.u.u.u.u.u.u.u.u.u.u.u.u.u.u.u.u.u.u.u.u.u.u.u.u.u.u.u.u.u.u.u.u.u.u.u.u.u.u.u.u.u.u.u.u.u.u.u.u.u.u.u.u.u.u.u.u.u.u.u.u.u.",
"u.u.u.u.u.u.u.u.u.u.u.u.u.u.u.u.u.u.u.u.u.u.u.u.u.u.u.u.u.u.u.u.u.u.u.u.u.u.u.u.u.u.u.u.u.u.u.u.u.u.u.u.u.u.u.u.u.u.u.u.u.u.u.u.",
"u.u.u.u.u.u.u.u.u.u.u.u.u.u.u.u.u.u.u.u.u.u.u.u.u.u.u.u.u.u.u.u.u.u.u.u.u.u.u.u.u.u.u.u.u.u.u.u.u.u.u.u.u.u.u.u.u.u.u.u.u.u.u.u.",
"u.u.u.u.u.u.u.u.u.u.u.u.u.u.u.u.u.u.u.u.u.u.u.u.u.u.u.u.u.u.u.u.u.u.u.u.u.u.u.u.u.u.u.u.u.u.u.u.u.u.u.u.u.u.u.u.u.u.u.u.u.u.u.u.",
"u.u.u.u.u.u.u.u.u.u.u.u.u.u.u.u.u.u.u.u.u.u.u.u.u.u.u.u.u.u.u.u.u.u.u.u.u.u.u.u.u.u.u.u.u.u.u.u.u.u.u.u.u.u.u.u.u.u.u.u.u.u.u.u.",
"u.u.u.u.u.u.u.u.u.u.u.u.u.u.u.u.u.u.u.u.u.u.u.u.u.u.u.u.u.u.u.u.u.u.u.u.u.u.u.u.u.u.u.u.u.u.u.u.u.u.u.u.u.u.u.u.u.u.u.u.u.u.u.u.",
"u.u.u.u.u.u.u.u.u.u.u.u.u.u.u.u.u.u.u.u.u.u.u.u.u.u.u.u.u.u.u.u.u.u.u.u.u.u.u.u.u.u.u.u.u.u.u.u.u.u.u.u.u.u.u.u.u.u.u.u.u.u.u.u.",
"u.u.u.u.u.u.u.u.u.u.u.u.u.u.u.u.u.u.u.u.u.u.u.u.u.u.u.u.u.u.u.u.u.u.u.u.u.u.u.u.u.u.u.u.u.u.u.u.u.u.u.u.u.u.u.u.u.u.u.u.u.u.u.u.",
"u.u.u.u.u.u.u.u.u.u.u.u.u.u.u.u.u.u.u.u.u.u.u.u.u.u.u.u.u.u.u.u.u.u.u.u.u.u.u.u.u.u.u.u.u.u.u.u.u.u.u.u.u.u.u.u.u.u.u.u.u.u.u.u.",
"u.u.u.u.u.u.u.u.u.u.u.u.u.u.u.u.u.u.u.u.u.u.u.u.u.u.1.+. .5 - ; ; ; 4 | O.1.u.u.u.u.u.u.u.u.u.u.u.u.u.u.u.u.u.u.u.u.u.u.u.u.u.u.",
"u.u.u.u.u.u.u.u.u.u.u.u.u.u.u.u.u.u.u.u.u.u.u.t.%.a ; ; ; ; ; ; ; ; ; ; ; ; 4 #.t.u.u.u.u.u.u.u.u.u.u.u.u.u.u.u.u.u.u.u.u.u.u.u.",
"u.u.u.u.u.u.u.u.u.u.u.u.u.u.u.u.u.u.u.u.u.u.>.3 ; ; ; ; ; ; ; ; ; ; ; ; ; ; ; ; 3 =.u.u.u.u.u.u.u.u.u.u.u.u.u.u.u.u.u.u.u.u.u.u.",
"u.u.u.u.u.u.u.u.u.u.u.u.u.u.u.u.u.u.u.u.t.X.; ; ; ; ; e v N I E E I M k 0 ; ; ; ; ;  .t.u.u.u.u.u.u.u.u.u.u.u.u.u.u.u.u.u.u.u.u.",
"u.u.u.u.u.u.u.u.u.u.u.u.u.u.u.u.u.u.u.8.d ; ; ; ; j W ] ] ] ] ] ] ] ] ] ] E j ; ; ; ; d 7.u.u.u.u.u.u.u.u.u.u.u.u.u.u.u.u.u.u.u.",
"u.u.u.u.u.u.u.u.u.u.u.u.u.u.u.u.u.u.6.p ; ; ; e E ] ] ] ] ] ] ] ] ] ] ] ] ] ] E e ; ; ; a 6.u.u.u.u.u.u.u.u.u.u.u.u.u.u.u.u.u.u.",
"u.u.u.u.u.u.u.u.u.u.u.u.u.u.u.u.u.w.a ; ; ; h ' ] ] ] ] ] ] ] ] ] ] ] ] ] ] ] ] ' j ; ; ; s q.u.u.u.u.u.u.u.u.u.u.u.u.u.u.u.u.u.",
"u.u.u.u.u.u.u.u.u.u.u.u.u.u.u.u.u. .; ; ; z ] ] ] ] ] ] ] ] ] ] ] ] ] ] ] ] ] ] ] ] v ; ; ; } u.u.u.u.u.u.u.u.u.u.u.u.u.u.u.u.u.",
"u.u.u.u.u.u.u.u.u.u.u.u.u.u.u.u.;.; ; ; h ] ] ] ] ] ] ] ] ] ] ] ] ] ] ] ] ] ] ] ] ] ] j ; ; ; -.u.u.u.u.u.u.u.u.u.u.u.u.u.u.u.u.",
"u.u.u.u.u.u.u.u.u.u.u.u.u.u.u.y.w ; ; e ' ] ] ] ] ] ] ] ] ] ] ] ] ] ] ] ] ] ] ] ] ] ] ' t ; ; 3 y.u.u.u.u.u.u.u.u.u.u.u.u.u.u.u.",
"u.u.u.u.u.u.u.u.u.u.u.u.u.u.u.*.; ; ; E ] ] ] ] ] ] ] ] ] ] ] ] ] ] ] ] ] ] ] ] ] ] ] ] E ; ; ; $.u.u.u.u.u.u.u.u.u.u.u.u.u.u.u.",
"u.u.u.u.u.u.u.u.u.u.u.u.u.u.u.d ; ; g ] ] ] ] ] ] ] ] ] ] ] ] ] ] ] ] ] ] ] ] ] ] ] ] ] ] j ; ; 5 u.u.u.u.u.u.u.u.u.u.u.u.u.u.u.",
"u.u.u.u.u.u.u.u.u.u.u.u.u.u.4.; ; ; E ] ] ] ] ' ~ ] ] J ~ ] ] ] L ~ ] ] J ~ ] ] ~ ' ] ] ] ^ ; ; ; 2.u.u.u.u.u.u.u.u.u.u.u.u.u.u.",
"u.u.u.u.u.u.u.u.u.u.u.u.u.u.+.; ; < ] ] ] ] ) * & ] *   . A ] *   . Z P + # ] ' O ' ] ] ] ] e ; ; +.u.u.u.u.u.u.u.u.u.u.u.u.u.u.",
"u.u.u.u.u.u.u.u.u.u.u.u.u.u.| ; ; c ] ] ] ] @   & P   6 + # Q   6 @ @ D 6 O ] A 6 ] ] ] ] ] v ; ; { u.u.u.u.u.u.u.u.u.u.u.u.u.u.",
"u.u.u.u.u.u.u.u.u.u.u.u.u.u.4 ; ; B ] ] ] ] ~ + & F   S * O H   A = X D 6 O ] * H ] ] ] ] ] B ; ; 1 u.u.u.u.u.u.u.u.u.u.u.u.u.u.",
"u.u.u.u.u.u.u.u.u.u.u.u.u.u.: ; ; Y ] ] ] ] ] @ & F   S * O H   A = X D 6 O ~ + ] ] ] ] ] ] E ; ; : u.u.u.u.u.u.u.u.u.u.u.u.u.u.",
"u.u.u.u.u.u.u.u.u.u.u.u.u.u.: ; ; E ] ] ] ] ] @ & F   S * O H   A = X P + % V 8 ~ ' ] ] ] ] _ ; ; ; u.u.u.u.u.u.u.u.u.u.u.u.u.u.",
"u.u.u.u.u.u.u.u.u.u.u.u.u.u.: ; ; E ] ] ] ] ] @ & F   S * O H   A = X ] ~ ) @ H o & ] ] ] ] ` ; ; ; u.u.u.u.u.u.u.u.u.u.u.u.u.u.",
"u.u.u.u.u.u.u.u.u.u.u.u.u.u.- ; ; U ] ] ] ] ] @ & F   S * O H   A = X ] ] P % D 6 O ] ] ] ] ^ ; ; ; u.u.u.u.u.u.u.u.u.u.u.u.u.u.",
"u.u.u.u.u.u.u.u.u.u.u.u.u.u.5 ; ; N ] ] ] ] ] @ & F   S * O H   A = X ] ] 7 C D 6 O ] ] ] ] G ; ; > u.u.u.u.u.u.u.u.u.u.u.u.u.u.",
"u.u.u.u.u.u.u.u.u.u.u.u.u.u. .; ; x ] ] ] ] ] @ & J   9 @ @ P   8 # + ] ' o ) D 6 O ] ] ] ] m ; ; f u.u.u.u.u.u.u.u.u.u.u.u.u.u.",
"u.u.u.u.u.u.u.u.u.u.u.u.u.u.@.; ; , ] ] ] ] ] @ & ] @     C ] $     V ] D = ] J # @ ] ] ] ] r ; ; O.u.u.u.u.u.u.u.u.u.u.u.u.u.u.",
"u.u.u.u.u.u.u.u.u.u.u.u.u.u.3.; ; ; R ] ] ] ] J K ] ' S J ] ] ' S H ] ] Q ~ ] ] F P ] ] ] ^ ; ; ; ,.u.u.u.u.u.u.u.u.u.u.u.u.u.u.",
"u.u.u.u.u.u.u.u.u.u.u.u.u.u.u.d ; ; i ] ] ] ] ] ] ] ] ] ] ] ] ] ] ] ] ] ] ] ] ] ] ] ] ] ] l ; ; 3 u.u.u.u.u.u.u.u.u.u.u.u.u.u.u.",
"u.u.u.u.u.u.u.u.u.u.u.u.u.u.u.*.; ; ; E ] ] ] ] ] ] ] ] ] ] ] ] ] ] ] ] ] ] ] ] ] ] ] ] / ; ; ; +.u.u.u.u.u.u.u.u.u.u.u.u.u.u.u.",
"u.u.u.u.u.u.u.u.u.u.u.u.u.u.u.u.p ; ; r ' ] ] ] ] ] ] ] ] ] ] ] ] ] ] ] ] ] ] ] ] ] ] ] u ; ; 2 r.u.u.u.u.u.u.u.u.u.u.u.u.u.u.u.",
"u.u.u.u.u.u.u.u.u.u.u.u.u.u.u.u.:.; ; ; h ] ] ] ] ] ] ] ] ] ] ] ] ] ] ] ] ] ] ] ] ] ] b ; ; ; &.u.u.u.u.u.u.u.u.u.u.u.u.u.u.u.u.",
"u.u.u.u.u.u.u.u.u.u.u.u.u.u.u.u.u...; ; ; z ] ] ] ] ] ] ] ] ] ] ] ] ] ] ] ] ] ] ] ] N ; ; ; [ u.u.u.u.u.u.u.u.u.u.u.u.u.u.u.u.u.",
"u.u.u.u.u.u.u.u.u.u.u.u.u.u.u.u.u.t.d ; ; ; h ' ] ] ] ] ] ] ] ] ] ] ] ] ] ] ] ] ] n ; ; ; p 0.u.u.u.u.u.u.u.u.u.u.u.u.u.u.u.u.u.",
"u.u.u.u.u.u.u.u.u.u.u.u.u.u.u.u.u.u.8.p ; ; ; y ! ] ] ] ] ] ] ] ] ] ] ] ] ] ] / u ; ; ; q 5.u.u.u.u.u.u.u.u.u.u.u.u.u.u.u.u.u.u.",
"u.u.u.u.u.u.u.u.u.u.u.u.u.u.u.u.u.u.u.6.a ; ; ; ; j ^ ] ] ] ] ] ] ] ] ] ] ^ x ; ; ; ; p 4.u.u.u.u.u.u.u.u.u.u.u.u.u.u.u.u.u.u.u.",
"u.u.u.u.u.u.u.u.u.u.u.u.u.u.u.u.u.u.u.u.e.} ; ; ; ; ; e v B T ( ( T G m r ; ; ; ; ; [ 9.u.u.u.u.u.u.u.u.u.u.u.u.u.u.u.u.u.u.u.u.",
"u.u.u.u.u.u.u.u.u.u.u.u.u.u.u.u.u.u.u.u.u.u.;.4 ; ; ; ; ; ; ; ; ; ; ; ; ; ; ; ; 3 =.u.u.u.u.u.u.u.u.u.u.u.u.u.u.u.u.u.u.u.u.u.u.",
"u.u.u.u.u.u.u.u.u.u.u.u.u.u.u.u.u.u.u.u.u.u.u.t.%.a ; ; ; ; ; ; ; ; ; ; ; ; 4 #.t.u.u.u.u.u.u.u.u.u.u.u.u.u.u.u.u.u.u.u.u.u.u.u.",
"u.u.u.u.u.u.u.u.u.u.u.u.u.u.u.u.u.u.u.u.u.u.u.u.u.u.3.+.{ 1 ; ; ; ; - d o.<.u.u.u.u.u.u.u.u.u.u.u.u.u.u.u.u.u.u.u.u.u.u.u.u.u.u.",
"u.u.u.u.u.u.u.u.u.u.u.u.u.u.u.u.u.u.u.u.u.u.u.u.u.u.u.u.u.u.u.u.u.u.u.u.u.u.u.u.u.u.u.u.u.u.u.u.u.u.u.u.u.u.u.u.u.u.u.u.u.u.u.u.",
"u.u.u.u.u.u.u.u.u.u.u.u.u.u.u.u.u.u.u.u.u.u.u.u.u.u.u.u.u.u.u.u.u.u.u.u.u.u.u.u.u.u.u.u.u.u.u.u.u.u.u.u.u.u.u.u.u.u.u.u.u.u.u.u.",
"u.u.u.u.u.u.u.u.u.u.u.u.u.u.u.u.u.u.u.u.u.u.u.u.u.u.u.u.u.u.u.u.u.u.u.u.u.u.u.u.u.u.u.u.u.u.u.u.u.u.u.u.u.u.u.u.u.u.u.u.u.u.u.u.",
"u.u.u.u.u.u.u.u.u.u.u.u.u.u.u.u.u.u.u.u.u.u.u.u.u.u.u.u.u.u.u.u.u.u.u.u.u.u.u.u.u.u.u.u.u.u.u.u.u.u.u.u.u.u.u.u.u.u.u.u.u.u.u.u.",
"u.u.u.u.u.u.u.u.u.u.u.u.u.u.u.u.u.u.u.u.u.u.u.u.u.u.u.u.u.u.u.u.u.u.u.u.u.u.u.u.u.u.u.u.u.u.u.u.u.u.u.u.u.u.u.u.u.u.u.u.u.u.u.u.",
"u.u.u.u.u.u.u.u.u.u.u.u.u.u.u.u.u.u.u.u.u.u.u.u.u.u.u.u.u.u.u.u.u.u.u.u.u.u.u.u.u.u.u.u.u.u.u.u.u.u.u.u.u.u.u.u.u.u.u.u.u.u.u.u.",
"u.u.u.u.u.u.u.u.u.u.u.u.u.u.u.u.u.u.u.u.u.u.u.u.u.u.u.u.u.u.u.u.u.u.u.u.u.u.u.u.u.u.u.u.u.u.u.u.u.u.u.u.u.u.u.u.u.u.u.u.u.u.u.u.",
"u.u.u.u.u.u.u.u.u.u.u.u.u.u.u.u.u.u.u.u.u.u.u.u.u.u.u.u.u.u.u.u.u.u.u.u.u.u.u.u.u.u.u.u.u.u.u.u.u.u.u.u.u.u.u.u.u.u.u.u.u.u.u.u.",
"u.u.u.u.u.u.u.u.u.u.u.u.u.u.u.u.u.u.u.u.u.u.u.u.u.u.u.u.u.u.u.u.u.u.u.u.u.u.u.u.u.u.u.u.u.u.u.u.u.u.u.u.u.u.u.u.u.u.u.u.u.u.u.u.",
"u.u.u.u.u.u.u.u.u.u.u.u.u.u.u.u.u.u.u.u.u.u.u.u.u.u.u.u.u.u.u.u.u.u.u.u.u.u.u.u.u.u.u.u.u.u.u.u.u.u.u.u.u.u.u.u.u.u.u.u.u.u.u.u.",
"u.u.u.u.u.u.u.u.u.u.u.u.u.u.u.u.u.u.u.u.u.u.u.u.u.u.u.u.u.u.u.u.u.u.u.u.u.u.u.u.u.u.u.u.u.u.u.u.u.u.u.u.u.u.u.u.u.u.u.u.u.u.u.u.",
"u.u.u.u.u.u.u.u.u.u.u.u.u.u.u.u.u.u.u.u.u.u.u.u.u.u.u.u.u.u.u.u.u.u.u.u.u.u.u.u.u.u.u.u.u.u.u.u.u.u.u.u.u.u.u.u.u.u.u.u.u.u.u.u.",
"u.u.u.u.u.u.u.u.u.u.u.u.u.u.u.u.u.u.u.u.u.u.u.u.u.u.u.u.u.u.u.u.u.u.u.u.u.u.u.u.u.u.u.u.u.u.u.u.u.u.u.u.u.u.u.u.u.u.u.u.u.u.u.u.",
"u.u.u.u.u.u.u.u.u.u.u.u.u.u.u.u.u.u.u.u.u.u.u.u.u.u.u.u.u.u.u.u.u.u.u.u.u.u.u.u.u.u.u.u.u.u.u.u.u.u.u.u.u.u.u.u.u.u.u.u.u.u.u.u."
};
