/* XPM */
static char *_2f743913acd4419a6d2fca9350cd143nEt6Xw77VdRd3eIg[] = {
/* columns rows colors chars-per-pixel */
"64 64 140 2 ",
"   c #C64D23",
".  c #C85229",
"X  c #DD5825",
"o  c #EC5C24",
"O  c #DF6434",
"+  c #EC632D",
"@  c #F46F2A",
"#  c #ED6531",
"$  c #ED6833",
"%  c #ED6A36",
"&  c #E06839",
"*  c #ED6C38",
"=  c #ED6E3C",
"-  c #ED703E",
";  c #F47330",
":  c #F47432",
">  c #CF6842",
",  c #D16C47",
"<  c #D06E4C",
"1  c #D1704F",
"2  c #D67C58",
"3  c #E27144",
"4  c #EE7140",
"5  c #EE7443",
"6  c #E27548",
"7  c #E3764C",
"8  c #EF7749",
"9  c #EF794B",
"0  c #EE7E4F",
"q  c #E37B50",
"w  c #E47950",
"e  c #E47E54",
"r  c #F07C50",
"t  c #D8815F",
"y  c #F48043",
"u  c #F48348",
"i  c #F48448",
"p  c #F4864C",
"a  c #F4884F",
"s  c #EE8153",
"d  c #EF8558",
"f  c #EF885C",
"g  c #F68A52",
"h  c #F68B54",
"j  c #F48E57",
"k  c #F0875C",
"l  c #F5905B",
"z  c #F4925D",
"x  c #D98461",
"c  c #DD8662",
"v  c #DA8765",
"b  c #DF8862",
"n  c #DB8F73",
"m  c #E28B63",
"M  c #E68A62",
"N  c #E68D63",
"B  c #E78C64",
"V  c #E98B62",
"C  c #E88C63",
"Z  c #EC8C62",
"A  c #EB8F64",
"S  c #E38E6A",
"D  c #F28D66",
"F  c #EB9164",
"G  c #EE9264",
"H  c #EF9465",
"J  c #E0916F",
"K  c #EC9469",
"L  c #EA976F",
"P  c #EE976F",
"I  c #ED986B",
"U  c #EE9B6F",
"Y  c #F19163",
"T  c #F49460",
"R  c #F19164",
"E  c #F39565",
"W  c #F49765",
"Q  c #F49865",
"!  c #F09268",
"~  c #F19569",
"^  c #F0976F",
"/  c #F29868",
"(  c #F49A68",
")  c #F49C6B",
"_  c #F1996F",
"`  c #F39D6F",
"'  c #F49E6F",
"]  c #E19370",
"[  c #E49373",
"{  c #EB9770",
"}  c #E39875",
"|  c #EB9870",
" . c #ED9A72",
".. c #EB9A75",
"X. c #E99C76",
"o. c #EE9F76",
"O. c #E79E7B",
"+. c #E69B7C",
"@. c #ED9B7B",
"#. c #EA9F7B",
"$. c #EC9B7C",
"%. c #EF9F7C",
"&. c #F39773",
"*. c #F09870",
"=. c #F39F71",
"-. c #F59D72",
";. c #F39B75",
":. c #F29F76",
">. c #F59F76",
",. c #F09B7B",
"<. c #F39D7B",
"1. c #F39D7C",
"2. c #EEA17B",
"3. c #E9A07C",
"4. c #EFA47C",
"5. c #F3A071",
"6. c #F4A071",
"7. c #F3A277",
"8. c #F7A174",
"9. c #F4A477",
"0. c #F8A073",
"q. c #F2A279",
"w. c #F4A77B",
"e. c #F1A17D",
"r. c #F5A17C",
"t. c #F2A57C",
"y. c #F4A77D",
"u. c #F4A97D",
"i. c #F8A87F",
"p. c #E89F84",
"a. c #E2A081",
"s. c #EDAB89",
"d. c #F5A685",
"f. c #F4AB80",
"g. c #F4AE86",
"h. c #F8A980",
"j. c #F1AD89",
"k. c #F7AF8E",
"l. c #F4B189",
"z. c #E3A894",
/* pixels */
"g @ @ @ @ @ @ @ : &.o o o o o o o o $.X X X X X X X X e.@ @ @ @ @ @ @ @ i.@ @ @ @ @ @ @ @ 0.# o o o o o o o 8 e X X X X X X X X ",
"g @ @ @ @ @ @ @ ; f o o o o o o o o V X X X X X X X X G @ @ @ @ @ @ @ @ Q @ @ @ @ @ @ @ @ z + o o o o o o o - 6 X X X X X X X X ",
"g @ @ @ @ @ @ @ ; f o o o o o o o o V X X X X X X X X G @ @ @ @ @ @ @ @ Q @ @ @ @ @ @ @ @ z + o o o o o o o - 6 X X X X X X X X ",
"g @ @ @ @ @ @ @ ; f o o o o o o o o V X X X X X X X X G @ @ @ @ @ @ @ @ Q @ @ @ @ @ @ @ @ z + o o o o o o o - 6 X X X X X X X X ",
"d.;.Y Y y.Q Q Q Q ` E E E t.E E E E =.H H H 4.Z Z Z Z ^ Y Y Y :.~ Y Y Y *.Y Y Y ~ 8.Q Q Q ' E E E E t.E E E / / H H H 2.Z Z Z ,.",
"o o o o E @ @ @ @ @ @ @ @ Q @ @ @ @ @ @ @ @ W o o o o o o o o s $ o o o o o o o * g @ @ @ @ @ @ @ @ Q @ @ @ @ @ @ @ @ Y o o o o ",
"o o o o E @ @ @ @ @ @ @ @ Q @ @ @ @ @ @ @ @ W o o o o o o o o s $ o o o o o o o * g @ @ @ @ @ @ @ @ Q @ @ @ @ @ @ @ @ Y o o o o ",
"o o o o E @ @ @ @ @ @ @ @ Q @ @ @ @ @ @ @ @ W o o o o o o o o s $ o o o o o o o * g @ @ @ @ @ @ @ @ Q @ @ @ @ @ @ @ @ Y o o o o ",
"r 9 5 5 7.u u u u u u u u 9.u u u u u u u u w.5 5 5 5 5 5 5 5 ! 0 5 5 5 5 5 5 5 s ( u u u u u u u u w.u u u u u u u u :.5 5 5 0 ",
"8.g u u u u u u p 6.u u u u u u u u } > > > > > > > > X.u u u u u u u u w.u u u u u u u u 6.a u u u u u u u z t > > > > > > > 1 ",
"g @ @ @ @ @ @ @ ; T @ @ @ @ @ @ @ @ b                 N @ @ @ @ @ @ @ @ Q @ @ @ @ @ @ @ @ z : @ @ @ @ @ @ @ y ,                 ",
"g @ @ @ @ @ @ @ ; T @ @ @ @ @ @ @ @ b                 N @ @ @ @ @ @ @ @ Q @ @ @ @ @ @ @ @ z : @ @ @ @ @ @ @ y ,                 ",
"g @ @ @ @ @ @ @ ; T @ @ @ @ @ @ @ @ b                 N @ @ @ @ @ @ @ @ Q @ @ @ @ @ @ @ @ z : @ @ @ @ @ @ @ y ,                 ",
"k.>.E E 6.Q Q Q ( w.Q Q Q =.H H H H O.c c c J m m m m 4.Q Q Q ' E E E E t.E E E / ' Q Q Q w.( Q Q Q =.H H H U ] c c c J m m m +.",
"o o o o E @ @ @ @ @ @ @ @ G X X X X X X X X C @ @ @ @ @ @ @ @ j $ o o o o o o o * g @ @ @ @ @ @ @ @ B X X X X X X X X G @ @ @ @ ",
"o o o o E @ @ @ @ @ @ @ @ G X X X X X X X X C @ @ @ @ @ @ @ @ j $ o o o o o o o * g @ @ @ @ @ @ @ @ B X X X X X X X X G @ @ @ @ ",
"o o o o E @ @ @ @ @ @ @ @ G X X X X X X X X C @ @ @ @ @ @ @ @ j $ o o o o o o o * g @ @ @ @ @ @ @ @ B X X X X X X X X G @ @ @ @ ",
"o o o o E @ @ @ @ @ @ @ @ G X X X X X X X X C @ @ @ @ @ @ @ @ j $ o o o o o o o * g @ @ @ @ @ @ @ @ B X X X X X X X X G @ @ @ @ ",
"z.n x x x x x x v g.Q Q Q Q Q Q Q Q l.Q Q Q Q Q Q Q Q l.Q Q Q Q Q Q Q Q j.x x x x x x x x a.) Q Q Q Q Q Q Q 8.w.Q Q Q Q Q Q Q i.",
"<               . T @ @ @ @ @ @ @ @ Q @ @ @ @ @ @ @ @ Q @ @ @ @ @ @ @ @ H                 2 : @ @ @ @ @ @ @ y p @ @ @ @ @ @ @ @ ",
"<               . T @ @ @ @ @ @ @ @ Q @ @ @ @ @ @ @ @ Q @ @ @ @ @ @ @ @ H                 2 : @ @ @ @ @ @ @ y p @ @ @ @ @ @ @ @ ",
"<               . T @ @ @ @ @ @ @ @ Q @ @ @ @ @ @ @ @ Q @ @ @ @ @ @ @ @ H                 2 : @ @ @ @ @ @ @ y p @ @ @ @ @ @ @ @ ",
"z.n x x x x x x v g.Q Q Q Q Q Q Q Q l.Q Q Q Q Q Q Q Q l.Q Q Q Q Q Q Q Q j.x x x x x x x x a.) Q Q Q Q Q Q Q 8.w.Q Q Q Q Q Q Q i.",
"X X X X E @ @ @ @ @ @ @ @ Q @ @ @ @ @ @ @ @ Q @ @ @ @ @ @ @ @ j O X X X X X X X & g @ @ @ @ @ @ @ @ Q @ @ @ @ @ @ @ @ Q @ @ @ @ ",
"X X X X E @ @ @ @ @ @ @ @ Q @ @ @ @ @ @ @ @ Q @ @ @ @ @ @ @ @ j O X X X X X X X & g @ @ @ @ @ @ @ @ Q @ @ @ @ @ @ @ @ Q @ @ @ @ ",
"X X X X E @ @ @ @ @ @ @ @ Q @ @ @ @ @ @ @ @ Q @ @ @ @ @ @ @ @ j O X X X X X X X & g @ @ @ @ @ @ @ @ Q @ @ @ @ @ @ @ @ Q @ @ @ @ ",
"X X X X E @ @ @ @ @ @ @ @ Q @ @ @ @ @ @ @ @ Q @ @ @ @ @ @ @ @ j O X X X X X X X & g @ @ @ @ @ @ @ @ Q @ @ @ @ @ @ @ @ Q @ @ @ @ ",
"k.:.H H 5.Q Q Q Q q.Y Y Y _ Y Y Y Y e.C C C | C C C C t.Q Q Q ' E H H H 4.H H H ~ ' Q Q Q w.R Y Y Y _ Y Y Y _  .C C C L C C C %.",
"g @ @ @ @ @ @ @ ; f o o o o o o o o V X X X X X X X X G @ @ @ @ @ @ @ @ Q @ @ @ @ @ @ @ @ z + o o o o o o o - 6 X X X X X X X X ",
"g @ @ @ @ @ @ @ ; f o o o o o o o o V X X X X X X X X G @ @ @ @ @ @ @ @ Q @ @ @ @ @ @ @ @ z + o o o o o o o - 6 X X X X X X X X ",
"g @ @ @ @ @ @ @ ; f o o o o o o o o V X X X X X X X X G @ @ @ @ @ @ @ @ Q @ @ @ @ @ @ @ @ z + o o o o o o o - 6 X X X X X X X X ",
"8.g i i i i i i p *.5 5 5 5 5 5 5 5 ..3 3 3 3 3 3 3 3 o.u u u u u u u u w.i i i i i i i i 6.9 5 5 5 5 5 5 5 d M 3 3 3 3 3 3 3 q ",
"r 9 5 5 7.u u u u u u u u 9.u u u u u u u u w.5 5 5 5 5 5 5 5 ! 0 5 5 5 5 5 5 5 s ( u u u u u u u u w.i i i i i i i i :.5 5 5 0 ",
"o o o o E @ @ @ @ @ @ @ @ Q @ @ @ @ @ @ @ @ W o o o o o o o o s $ o o o o o o o * g @ @ @ @ @ @ @ @ Q @ @ @ @ @ @ @ @ Y o o o o ",
"o o o o E @ @ @ @ @ @ @ @ Q @ @ @ @ @ @ @ @ W o o o o o o o o s $ o o o o o o o * g @ @ @ @ @ @ @ @ Q @ @ @ @ @ @ @ @ Y o o o o ",
"o o o o E @ @ @ @ @ @ @ @ Q @ @ @ @ @ @ @ @ W o o o o o o o o s $ o o o o o o o * g @ @ @ @ @ @ @ @ Q @ @ @ @ @ @ @ @ Y o o o o ",
"d.:.R R y.Q Q Q Q 6.Q Q Q u.Q Q Q Q =.F F F 3.V V V V P Y Y Y :.~ Y Y Y _ Y Y Y ~ 8.Q Q Q ' Q Q Q Q u.Q Q Q ) I F F F #.V V V @.",
"g @ @ @ @ @ @ @ ; T @ @ @ @ @ @ @ @ b                 N @ @ @ @ @ @ @ @ Q @ @ @ @ @ @ @ @ z : @ @ @ @ @ @ @ y ,                 ",
"g @ @ @ @ @ @ @ ; T @ @ @ @ @ @ @ @ b                 N @ @ @ @ @ @ @ @ Q @ @ @ @ @ @ @ @ z : @ @ @ @ @ @ @ y ,                 ",
"g @ @ @ @ @ @ @ ; T @ @ @ @ @ @ @ @ b                 N @ @ @ @ @ @ @ @ Q @ @ @ @ @ @ @ @ z : @ @ @ @ @ @ @ y ,                 ",
"g @ @ @ @ @ @ @ ; T @ @ @ @ @ @ @ @ b                 N @ @ @ @ @ @ @ @ Q @ @ @ @ @ @ @ @ z : @ @ @ @ @ @ @ y ,                 ",
"<.&.Z Z j.Q Q Q Q Q Q Q Q j.M M M M M M M M s.Q Q Q Q Q Q Q Q f.~ Z Z Z Z D Z Z ^ u.Q Q Q Q Q Q Q Q s.M M M M M M M M j.Q Q Q i.",
"o o o o E @ @ @ @ @ @ @ @ G X X X X X X X X C @ @ @ @ @ @ @ @ j $ o o o o o o o * g @ @ @ @ @ @ @ @ B X X X X X X X X G @ @ @ @ ",
"o o o o E @ @ @ @ @ @ @ @ G X X X X X X X X C @ @ @ @ @ @ @ @ j $ o o o o o o o * g @ @ @ @ @ @ @ @ B X X X X X X X X G @ @ @ @ ",
"o o o o E @ @ @ @ @ @ @ @ G X X X X X X X X C @ @ @ @ @ @ @ @ j $ o o o o o o o * g @ @ @ @ @ @ @ @ B X X X X X X X X G @ @ @ @ ",
"1.*.Z Z j.Q Q Q Q Q Q Q Q j.M M M M M M M M s.Q Q Q Q Q Q Q Q f.~ Z Z Z Z Z Z Z ^ u.Q Q Q Q Q Q Q Q s.M M M M M M M M j.Q Q Q i.",
"<               . T @ @ @ @ @ @ @ @ Q @ @ @ @ @ @ @ @ Q @ @ @ @ @ @ @ @ H                 2 : @ @ @ @ @ @ @ y p @ @ @ @ @ @ @ @ ",
"<               . T @ @ @ @ @ @ @ @ Q @ @ @ @ @ @ @ @ Q @ @ @ @ @ @ @ @ H                 2 : @ @ @ @ @ @ @ y p @ @ @ @ @ @ @ @ ",
"<               . T @ @ @ @ @ @ @ @ Q @ @ @ @ @ @ @ @ Q @ @ @ @ @ @ @ @ H                 2 : @ @ @ @ @ @ @ y p @ @ @ @ @ @ @ @ ",
"<               . T @ @ @ @ @ @ @ @ Q @ @ @ @ @ @ @ @ Q @ @ @ @ @ @ @ @ H                 2 : @ @ @ @ @ @ @ y p @ @ @ @ @ @ @ @ ",
"p.[ m m 3.F F F F 6.Q Q Q u.Q Q Q Q 6.Q Q Q u.Q Q Q Q 6.Q Q Q 9.K C C C L m m m S X.F F F U Q Q Q Q u.Q Q Q ) ' Q Q Q u.Q Q Q i.",
"X X X X E @ @ @ @ @ @ @ @ Q @ @ @ @ @ @ @ @ Q @ @ @ @ @ @ @ @ j O X X X X X X X & g @ @ @ @ @ @ @ @ Q @ @ @ @ @ @ @ @ Q @ @ @ @ ",
"X X X X E @ @ @ @ @ @ @ @ Q @ @ @ @ @ @ @ @ Q @ @ @ @ @ @ @ @ j O X X X X X X X & g @ @ @ @ @ @ @ @ Q @ @ @ @ @ @ @ @ Q @ @ @ @ ",
"X X X X E @ @ @ @ @ @ @ @ Q @ @ @ @ @ @ @ @ Q @ @ @ @ @ @ @ @ j O X X X X X X X & g @ @ @ @ @ @ @ @ Q @ @ @ @ @ @ @ @ Q @ @ @ @ ",
"w 7 3 3 7.u u u u u u u u 9.u u u u u u u u w.u u u u u u u u ' q 3 3 3 3 3 3 3 e ( u u u u u u u u w.u u u u u u u u 9.u u u h ",
"8.g i i i i i i p *.5 5 5 5 5 5 5 5 ..3 3 3 3 3 3 3 3 o.i i i i i i i i w.i i i i i i i i 6.9 5 5 5 5 5 5 5 d M 3 3 3 3 3 3 3 q ",
"g @ @ @ @ @ @ @ ; f o o o o o o o o V X X X X X X X X G @ @ @ @ @ @ @ @ Q @ @ @ @ @ @ @ @ z + o o o o o o o - 6 X X X X X X X X ",
"g @ @ @ @ @ @ @ ; f o o o o o o o o V X X X X X X X X G @ @ @ @ @ @ @ @ Q @ @ @ @ @ @ @ @ z + o o o o o o o - 6 X X X X X X X X ",
"g @ @ @ @ @ @ @ ; f o o o o o o o o V X X X X X X X X G @ @ @ @ @ @ @ @ Q @ @ @ @ @ @ @ @ z + o o o o o o o - 6 X X X X X X X X ",
"k.>.E E 6.Q Q Q ( q.Y Y Y _ Y Y Y Y e.A A A { V V V V e.E E E ` E E E E t.E E E / ' Q Q Q w.R Y Y Y _ Y Y Y _  .A A A L V V V @.",
"o o o o E @ @ @ @ @ @ @ @ Q @ @ @ @ @ @ @ @ W o o o o o o o o s $ o o o o o o o * g @ @ @ @ @ @ @ @ Q @ @ @ @ @ @ @ @ Y o o o o ",
"o o o o E @ @ @ @ @ @ @ @ Q @ @ @ @ @ @ @ @ W o o o o o o o o s $ o o o o o o o * g @ @ @ @ @ @ @ @ Q @ @ @ @ @ @ @ @ Y o o o o ",
"o o o o -.@ @ @ @ @ @ @ @ 6.@ @ @ @ @ @ @ @ -.o o o o o o o o k % o o o o o o o = l @ @ @ @ @ @ @ @ 6.@ @ @ @ @ @ @ @ *.o o o o ",
"o o o o y.@ @ @ @ @ @ @ @ i.@ @ @ @ @ @ @ @ y.o o o o o o o o D * o o o o o o o 4 W @ @ @ @ @ @ @ @ h.@ @ @ @ @ @ @ @ r.o o o o "
};
