/* XPM */
static char *dccd366bd5dc4e75830bde22846571beEeMgv5uu93BKsIiR[] = {
/* columns rows colors chars-per-pixel */
"64 64 171 2 ",
"   c black",
".  c #01131C",
"X  c #151515",
"o  c #011521",
"O  c #041827",
"+  c #041928",
"@  c #032234",
"#  c #01293D",
"$  c #08283C",
"%  c #262C2F",
"&  c #303130",
"*  c #022B41",
"=  c #0A2E47",
"-  c #0B3347",
";  c #02324D",
":  c #163644",
">  c #1C3642",
",  c #1E3B47",
"<  c #143A4C",
"1  c #1E3C49",
"2  c #073855",
"3  c #0D3C57",
"4  c #023F5E",
"5  c #113E53",
"6  c #213741",
"7  c #243A44",
"8  c #2C3D43",
"9  c #243D49",
"0  c #0A3E62",
"q  c #03415F",
"w  c #0D425B",
"e  c #194357",
"r  c #164359",
"t  c #24414E",
"y  c #29414C",
"u  c #334247",
"i  c #34454D",
"p  c #3D4648",
"a  c #254553",
"s  c #364A51",
"d  c #014363",
"f  c #01476A",
"g  c #0B456D",
"h  c #004A6D",
"j  c #014D73",
"k  c #0C4A75",
"l  c #0C4D7B",
"z  c #015077",
"x  c #00537C",
"c  c #404645",
"v  c #424B4F",
"b  c #4A4E4D",
"n  c #4E504C",
"m  c #4A4F52",
"M  c #435154",
"N  c #4C5454",
"B  c #535554",
"V  c #5C5A55",
"C  c #565A5A",
"Z  c #5D5F5B",
"A  c #625F59",
"S  c #5D605C",
"D  c #64625C",
"F  c #5D6062",
"G  c #666562",
"H  c #716D65",
"J  c #75726A",
"K  c #7B766D",
"L  c #7E7A71",
"P  c #7D7E7E",
"I  c #837E74",
"U  c #878178",
"Y  c #8A847A",
"T  c #908A7F",
"R  c #005681",
"E  c #005985",
"W  c #0E5688",
"Q  c #005E8C",
"!  c #00608F",
"~  c #006494",
"^  c #006799",
"/  c #00689B",
"(  c #10649E",
")  c #006DA3",
"_  c #1066A1",
"`  c #126DAD",
"'  c #0071A7",
"]  c #0074AC",
"[  c #126FB0",
"{  c #007AB5",
"}  c #007EBB",
"|  c #1271B3",
" . c #1375B9",
".. c #0080BF",
"X. c #0083C3",
"o. c #0087C9",
"O. c #008ACD",
"+. c #008DD1",
"@. c #0091D7",
"#. c #0093DB",
"$. c #0097E1",
"%. c #009AE5",
"&. c #009FEC",
"*. c #03A0ED",
"=. c #0CA1EB",
"-. c #13A2EB",
";. c #1CA4EB",
":. c #22A6EB",
">. c #29A7EB",
",. c #2EA8EA",
"<. c #34AAEA",
"1. c #3DACEA",
"2. c #44ADEA",
"3. c #4CAFEA",
"4. c #4FB0EA",
"5. c #54B0EA",
"6. c #5BB2EA",
"7. c #64B5EA",
"8. c #6BB6EA",
"9. c #73B8EB",
"0. c #7CBAEA",
"q. c #858686",
"w. c #878788",
"e. c #8B8B8B",
"r. c #948D82",
"t. c #969085",
"y. c #999287",
"u. c #9C958A",
"i. c gray60",
"p. c #A29B8F",
"a. c #A59E91",
"s. c #AAA396",
"d. c #AFA79B",
"f. c #B3AB9E",
"g. c #A4A4A4",
"h. c gray67",
"j. c #B5AEA0",
"k. c #BAB2A5",
"l. c #BFB7A9",
"z. c #B1B1B1",
"x. c #C3BBAC",
"c. c #C8BFB0",
"v. c #CCC3B4",
"b. c #D2C9BA",
"n. c #D8CFBF",
"m. c #84BCEA",
"M. c #8DBEEA",
"N. c #92BFEA",
"B. c #97C1EB",
"V. c #98C1EA",
"C. c gray76",
"Z. c #CBCBCB",
"A. c #DDD3C3",
"S. c gray82",
"D. c #DDDDDD",
"F. c #E0D6C5",
"G. c #E2D8C7",
"H. c #E6DCCB",
"J. c #E8DECC",
"K. c #EBE1CF",
"L. c #F2E7D5",
"P. c #F4E9D7",
"I. c #F6EBD9",
"U. c #F9EFDC",
"Y. c #FDF2DF",
"T. c #E6E6E6",
"R. c #FEF3E0",
"E. c #FFF4E1",
"W. c gray94",
"Q. c #F8F8F8",
"!. c #FFFFFF",
/* pixels */
"E.E.E.E.E.E.E.E.E.E.E.E.E.E.E.E.E.E.E.E.E.E.E.E.E.E.E.E.E.E.E.E.E.E.E.E.E.E.E.E.E.E.E.E.E.E.E.E.E.E.E.E.E.E.E.E.E.E.E.E.E.E.E.E.",
"E.E.E.E.E.E.E.E.E.E.E.E.E.E.E.E.E.E.E.E.E.E.E.E.E.E.E.E.E.E.E.E.E.E.E.E.E.E.E.E.E.E.E.E.E.E.E.E.E.E.E.E.E.E.E.E.E.E.E.E.E.E.E.E.",
"E.E.E.E.E.E.E.E.E.E.E.E.E.E.E.E.E.E.E.E.E.E.E.E.E.E.E.E.E.E.E.E.E.E.E.E.E.E.E.E.E.E.E.E.E.E.E.E.E.E.E.E.E.E.E.E.E.E.E.E.E.E.E.E.",
"E.E.E.E.E.E.E.E.E.E.E.E.E.E.E.E.E.E.E.E.E.E.E.E.E.E.E.E.E.E.E.E.E.E.E.E.E.E.E.E.E.E.E.E.E.E.E.E.E.E.E.E.E.E.E.E.E.E.E.E.E.E.E.E.",
"E.E.E.E.E.E.E.E.E.E.E.E.E.E.E.E.E.E.E.E.E.E.E.E.E.E.E.E.E.E.E.E.E.E.E.E.E.E.E.E.E.E.E.E.E.E.E.E.E.E.E.E.E.E.E.E.E.E.E.E.E.E.E.E.",
"E.E.E.E.E.E.E.E.E.E.E.E.E.E.E.E.E.E.E.E.E.E.E.E.E.E.E.E.E.E.E.E.E.E.E.E.E.E.E.E.E.E.E.E.E.E.E.E.E.E.E.E.E.E.E.E.E.E.E.E.E.E.E.E.",
"E.E.E.E.E.E.E.E.E.E.E.E.E.E.E.E.E.E.E.E.E.E.c.U K L u.I.E.E.E.E.E.E.E.E.L.t.L K Y b.E.E.E.E.E.E.E.E.E.E.E.E.E.E.E.E.E.E.E.E.E.E.",
"E.E.E.E.E.E.E.E.E.E.E.E.E.E.E.E.E.E.E.E.A.v x O.#.@.' 5 t.R.E.E.E.E.Y.Y 3 ] @.#.o.j N H.E.E.E.E.E.E.E.E.E.E.E.E.E.E.E.E.E.E.E.E.",
"E.E.E.E.E.E.E.E.E.E.E.E.E.E.E.E.E.E.E.b.< @.&.&.O.x j } ~ J R.E.E.R.D ) { j x +.&.&.+.1 F.E.E.E.E.E.E.E.E.E.E.E.E.E.E.E.E.E.E.E.",
"E.E.E.E.E.E.E.E.E.E.E.E.E.E.E.E.E.E.U.y %.&.&./ G S.D.P x E s.E.E.u.^ j q.D.Z.C ] &.&.@.p E.E.E.E.E.E.E.E.E.E.E.E.E.E.E.E.E.E.E.",
"E.E.E.E.E.E.E.E.E.E.E.E.E.E.E.E.E.E.y.) &.&.@.B !.!.!.!.P X.y R.R.< { q.!.!.!.!.p &.&.&.Q d.E.E.E.E.E.E.E.E.E.E.E.E.E.E.E.E.E.E.",
"E.E.E.E.E.E.E.E.E.E.E.E.E.E.E.E.E.E.N &.&.&.) g.!.!.w.z.D.j x b.l.E z D.h.w.!.!.q.} &.&.$.H E.E.E.E.E.E.E.E.E.E.E.E.E.E.E.E.E.E.",
"E.E.E.E.E.E.E.E.E.E.E.E.E.E.E.E.E.E.t &.&.&.] i.!.D.  X Z.x ) a.I X.R Z.X   T.!.P O.&.&.%.c E.E.E.E.E.E.E.E.E.E.E.E.E.E.E.E.E.E.",
"E.E.E.E.E.E.E.E.E.E.E.E.E.E.E.E.E.E.t &.&.&.%.i Q.!.g.Z.B +.^ a.I X.O.F C.h.!.W.t &.&.&.@.p E.E.E.E.E.E.E.E.E.E.E.E.E.E.E.E.E.E.",
"E.E.E.E.E.E.E.E.E.E.E.E.E.E.E.E.E.E.N &.&.&.&.{ i w.e.v ] %.h v.k.E &.) m e.q.y X.&.&.%.X.H E.E.E.E.E.E.E.E.E.E.E.E.E.E.E.E.E.E.",
"E.E.E.E.E.E.E.E.E.E.E.E.E.E.E.E.E.E.r./ &.&.&.&.%...{ %.%.O.7 R.R.< &.&.%.{ X.&.&.&.&.+.x s.E.E.E.E.E.E.E.E.E.E.E.E.E.E.E.E.E.E.",
"E.E.E.E.E.E.E.E.E.E.E.E.E.E.E.E.E.E.I.7 O.%.&.&.&.&.&.$.O.x a.E.E.r.Q $.&.&.&.&.&.%.+...u E.E.E.E.E.E.E.E.E.E.E.E.E.E.E.E.E.E.E.",
"E.E.E.E.E.E.E.E.E.E.E.E.E.E.E.E.E.E.E.v.= X.+.@.@.@.+.O.Q D R.E.E.R.C ~ +.@.@.@.+.O.} : A.E.E.E.E.E.E.E.E.E.E.E.E.E.E.E.E.E.E.E.",
"E.E.E.E.E.E.E.E.E.E.E.E.E.E.E.E.E.E.E.E.b.u j X.O.O.~ ; r.R.E.E.E.E.Y.K ; ) O.O...f c A.E.E.E.E.E.E.E.E.E.E.E.E.E.E.E.E.E.E.E.E.",
"E.E.E.E.E.E.E.E.E.E.E.E.E.E.E.E.E.E.E.E.E.Y.x.H & d E < E.E.E.E.E.E.E.t./ x # B J v.R.E.E.E.E.E.E.E.E.E.E.E.E.E.E.E.E.E.E.E.E.E.",
"E.E.E.E.E.E.E.E.E.E.E.E.E.E.E.E.E.E.E.E.E.E.E.E.T } &.) y.E.E.E.E.E.U.y &.&.3 U.E.E.E.E.E.E.E.E.E.E.E.E.E.E.E.E.E.E.E.E.E.E.E.E.",
"E.E.E.E.E.E.E.E.E.E.E.E.E.E.E.E.E.E.E.E.E.E.E.E.b.x &.&.< H.K.G.G.K.I ' &.&.M R.E.E.E.E.E.E.E.E.E.E.E.E.E.E.E.E.E.E.E.E.E.E.E.E.",
"E.E.E.E.E.E.E.E.E.E.E.E.E.E.E.E.E.E.E.E.E.E.E.E.R.d &.&.+.q x R R x ~ &.&.*.Z E.E.E.E.E.E.E.E.E.E.E.E.E.E.E.E.E.E.E.E.E.E.E.E.E.",
"E.E.E.E.E.E.E.E.E.E.E.E.E.E.E.E.E.E.E.E.E.E.E.E.x.d &.&.&.&.&.&.&.&.&.&.&.&.8 c.E.E.E.E.E.E.E.E.E.E.E.E.E.E.E.E.E.E.E.E.E.E.E.E.",
"E.E.E.E.E.E.E.E.E.E.E.E.E.E.E.E.E.E.E.E.E.E.L.Z x $.&.&.&.&.&.&.&.&.&.&.&.&.$.j D I.E.E.E.E.E.E.E.E.E.E.E.E.E.E.E.E.E.E.E.E.E.E.",
"E.E.E.E.E.E.E.E.E.E.E.E.E.E.E.E.E.E.E.E.E.n.9 X.&.&.&.&.&.&.&.&.&.&.&.&.&.&.&.&.X.8 F.E.E.E.E.E.E.E.E.E.E.E.E.E.E.E.E.E.E.E.E.E.",
"E.E.E.E.E.E.E.E.E.E.E.E.E.E.E.E.E.E.E.E.b.< #.&.&.&.&.&.&.&.&.&.&.&.&.&.&.&.&.&.&.@.9 A.E.E.E.E.E.E.E.E.E.E.E.E.E.E.E.E.E.E.E.E.",
"E.E.E.E.E.E.E.E.E.E.E.E.E.E.E.E.E.E.E.L., $.&.&.&.&.&.&.&.&.&.&.&.&.&.&.&.&.&.&.&.&.@.8 P.E.E.E.E.E.E.E.E.E.E.E.E.E.E.E.E.E.E.E.",
"E.E.E.E.E.E.E.E.E.E.E.E.E.E.E.E.E.E.R.n O.&.&.&.&.&.&.&.&.&.&.&.&.&.&.&.&.&.&.&.&.&.&.X.D R.E.E.E.E.E.E.E.E.E.E.E.E.E.E.E.E.E.E.",
"E.E.E.E.E.E.E.E.E.E.E.E.E.E.E.E.E.E.f.Q &.&.&.&.&.&.&.&.&.&.&.&.&.&.&.&.&.&.&.&.&.&.&.&.z x.E.E.E.E.E.E.E.E.E.E.E.E.E.E.E.E.E.E.",
"E.E.E.E.E.E.E.E.E.E.E.E.E.E.E.E.E.R.u &.&.&.&.&.&.&.&.&.&.&.&.&.&.&.-.8.m.5.&.&.&.&.&.&.%.b R.E.E.E.E.E.E.E.E.E.E.E.E.E.E.E.E.E.",
"E.E.E.E.E.E.E.E.E.E.E.E.E.E.E.E.E.v.E &.=.6.6.&.&.&.&.&.&.&.&.&.&.&.0.B.B.B.4.&.&.&.&.&.&.j G.E.E.E.E.E.E.E.E.E.E.E.E.E.E.E.E.E.",
"E.E.E.E.E.E.E.E.E.E.E.E.E.E.E.E.E.K O.&.8.B.B.1.&.&.&.&.&.&.&.&.&.;.B.B.B.B.m.&.&.&.<.:.&.} I E.E.E.E.E.E.E.E.E.E.E.E.E.E.E.E.E.",
"E.E.E.E.E.E.E.E.E.E.E.E.E.E.E.E.E.s &.=.B.B.B.2.&.&.&.&.&.&.&.&.&.:.B.B.B.B.m.&.&.&.N.M.=.$.S E.E.E.E.E.E.E.E.E.E.E.E.E.E.E.E.E.",
"E.E.E.E.E.E.E.E.E.E.E.E.E.E.E.E.R.r &.<.B.B.B.1.&.&.&.&.&.&.&.&.&.&.m.B.B.B.6.&.&.&.M.B.1.@.s E.E.E.E.E.E.E.E.E.E.E.E.E.E.E.E.E.",
"E.E.E.E.E.E.E.E.E.E.E.E.E.E.E.E.R.q &.;.B.B.M.=.&.&.&.&.&.&.&.&.&.&.;.0.V.7.*.&.&.&.5.B.2.@.e E.E.E.E.E.E.E.E.E.E.E.E.E.E.E.E.E.",
"E.E.E.E.E.E.E.E.E.E.E.E.E.E.E.E.R.d &.&.8.M.,.&.&.&.&.&.&.=.>.=.&.&.&.&.&.&.&.&.&.&.&.1.&.O.r E.E.E.E.E.E.E.E.E.E.E.E.E.E.E.E.E.",
"E.E.E.E.E.E.E.E.E.E.E.E.E.E.E.E.R.w &.&.&.&.&.&.&.&.&.&.2.N.B.B.5.&.&.&.&.&.&.&.&.&.&.&.#.O.a E.E.E.E.E.E.E.E.E.E.E.E.E.E.E.E.E.",
"E.E.E.E.E.E.E.E.E.E.E.E.E.E.E.E.R.t %.&.&.&.&.8.6.&.&.>.B.B.B.B.B.1.&.&.&.&.&.&.&.&.&.&.+.O.N E.E.E.E.E.E.E.E.E.E.E.E.E.E.E.E.E.",
"E.E.E.E.E.E.E.E.E.E.E.E.E.E.E.E.E.V +.&.&.&.&.M.B.1.&.6.B.B.B.B.B.9.&.&.=.6.2.&.&.&.&.#.O.X.H E.E.E.E.E.E.E.E.E.E.E.E.E.E.E.E.E.",
"E.E.E.E.E.E.E.E.E.E.E.E.E.E.E.E.E.a.Q #.&.&.&.2.B.7.&.7.B.B.B.B.B.m.&.&.6.B.B.>.&.&.%.O.O.z k.E.E.E.E.E.E.E.E.E.E.E.E.E.E.E.E.E.",
"E.E.E.E.E.E.E.E.E.E.E.E.E.E.E.E.E.L.< O.$.&.&.&.2.<.&.5.B.B.B.B.B.7.&.&.0.B.B.1.&.%.O.O.O.: U.E.E.E.E.E.E.E.E.E.E.E.E.E.E.E.E.E.",
"E.E.E.E.E.E.E.E.E.E.E.E.E.E.E.E.E.E.J ) O.#.&.&.&.&.&.=.M.B.B.B.N.;.&.&.3.B.N.;.%.O.O.O.^ Y E.E.E.E.E.E.E.E.E.E.E.E.E.E.E.E.E.E.",
"E.E.E.E.E.E.E.E.E.E.E.E.E.E.E.E.E.E.L.: O.O.@.&.&.&.&.&.;.7.M.8.;.&.&.&.&.<.;.#.O.O.O.X.6 Y.E.E.E.E.E.E.E.E.E.E.E.E.E.E.E.E.E.E.",
"E.E.E.E.E.E.E.E.E.E.E.E.E.E.E.E.E.E.E.j.f O.E O.#.&.&.&.&.&.&.&.&.&.&.&.&.$.+.O.O.R O.4 x.E.E.E.E.E.E.E.E.E.E.E.E.E.E.E.E.E.E.E.",
"E.E.E.E.E.E.E.E.E.E.E.E.E.E.E.E.E.E.E.E.Y x ; O.O.O.@.#.%.&.&.&.&.%.$.@.O.O.O.O.o.; j r.E.E.E.E.E.E.E.E.E.E.E.E.E.E.E.E.E.E.E.E.",
"E.E.E.E.E.E.E.E.E.E.E.E.E.E.E.E.E.E.E.E.E.L . X.O.O.O.) } O.O.O.O.O.O.o./ O.O.O.} . Y E.E.E.E.E.E.E.E.E.E.E.E.E.E.E.E.E.E.E.E.E.",
"E.E.E.E.E.E.E.E.E.E.E.E.E.E.E.E.E.E.E.E.E.E.D { O./ o.E R O.O.O.O.O.O.{ h o./ O.] H E.E.E.E.E.E.E.E.E.E.E.E.E.E.E.E.E.E.E.E.E.E.",
"E.E.E.E.E.E.E.E.E.E.E.E.E.E.E.E.E.E.E.E.E.E.b O.O.j ' ..d O.O.O.O.O.O.E E ~ j O.X.V E.E.E.E.E.E.E.E.E.E.E.E.E.E.E.E.E.E.E.E.E.E.",
"E.E.E.E.E.E.E.E.E.E.E.E.E.E.E.E.E.E.E.E.E.p.x O.O.d @ * 4 O.o.{ } X.O.h @ @ d O.O.h f.E.E.E.E.E.E.E.E.E.E.E.E.E.E.E.E.E.E.E.E.E.",
"E.E.E.E.E.E.E.E.E.E.E.E.E.E.E.E.E.E.E.E.E.1 O.O.O.o _ ( d O.X.o O ] O.! k ` @ O.O.O.u E.E.E.E.E.E.E.E.E.E.E.E.E.E.E.E.E.E.E.E.E.",
"E.E.E.E.E.E.E.E.E.E.E.E.E.E.E.E.E.E.E.E.R.7 o.O.E @  .$ } O.} 2 0 ) O.X.# [ * ! O.X.u E.E.E.E.E.E.E.E.E.E.E.E.E.E.E.E.E.E.E.E.E.",
"E.E.E.E.E.E.E.E.E.E.E.E.E.E.E.E.E.E.E.E.E.x.6 * O ` k Q O.O.~ k _ d O.O.] 2 ` + * 8 v.E.E.E.E.E.E.E.E.E.E.E.E.E.E.E.E.E.E.E.E.E.",
"E.E.E.E.E.E.E.E.E.E.E.E.E.E.E.E.E.E.E.E.E.E.R.d.g  .0 ) O.O.* |  .o ..O.o.;  .W y.R.E.E.E.E.E.E.E.E.E.E.E.E.E.E.E.E.E.E.E.E.E.E.",
"E.E.E.E.E.E.E.E.E.E.E.E.E.E.E.E.E.E.E.E.E.E.E.J.$ | 3 8 d : =  . .% 8 d > = | - b.E.E.E.E.E.E.E.E.E.E.E.E.E.E.E.E.E.E.E.E.E.E.E.",
"E.E.E.E.E.E.E.E.E.E.E.E.E.E.E.E.E.E.E.E.E.E.E.E.v.D a.R.J.U.9  . .b Y.J.Y.s.A x.E.E.E.E.E.E.E.E.E.E.E.E.E.E.E.E.E.E.E.E.E.E.E.E.",
"E.E.E.E.E.E.E.E.E.E.E.E.E.E.E.E.E.E.E.E.E.E.E.E.E.E.E.E.E.E.H l l K E.E.E.E.E.E.E.E.E.E.E.E.E.E.E.E.E.E.E.E.E.E.E.E.E.E.E.E.E.E.",
"E.E.E.E.E.E.E.E.E.E.E.E.E.E.E.E.E.E.E.E.E.E.E.E.E.E.E.E.E.E.U.l.x.Y.E.E.E.E.E.E.E.E.E.E.E.E.E.E.E.E.E.E.E.E.E.E.E.E.E.E.E.E.E.E.",
"E.E.E.E.E.E.E.E.E.E.E.E.E.E.E.E.E.E.E.E.E.E.E.E.E.E.E.E.E.E.E.E.E.E.E.E.E.E.E.E.E.E.E.E.E.E.E.E.E.E.E.E.E.E.E.E.E.E.E.E.E.E.E.E.",
"E.E.E.E.E.E.E.E.E.E.E.E.E.E.E.E.E.E.E.E.E.E.E.E.E.E.E.E.E.E.E.E.E.E.E.E.E.E.E.E.E.E.E.E.E.E.E.E.E.E.E.E.E.E.E.E.E.E.E.E.E.E.E.E.",
"E.E.E.E.E.E.E.E.E.E.E.E.E.E.E.E.E.E.E.E.E.E.E.E.E.E.E.E.E.E.E.E.E.E.E.E.E.E.E.E.E.E.E.E.E.E.E.E.E.E.E.E.E.E.E.E.E.E.E.E.E.E.E.E.",
"E.E.E.E.E.E.E.E.E.E.E.E.E.E.E.E.E.E.E.E.E.E.E.E.E.E.E.E.E.E.E.E.E.E.E.E.E.E.E.E.E.E.E.E.E.E.E.E.E.E.E.E.E.E.E.E.E.E.E.E.E.E.E.E.",
"E.E.E.E.E.E.E.E.E.E.E.E.E.E.E.E.E.E.E.E.E.E.E.E.E.E.E.E.E.E.E.E.E.E.E.E.E.E.E.E.E.E.E.E.E.E.E.E.E.E.E.E.E.E.E.E.E.E.E.E.E.E.E.E.",
"E.E.E.E.E.E.E.E.E.E.E.E.E.E.E.E.E.E.E.E.E.E.E.E.E.E.E.E.E.E.E.E.E.E.E.E.E.E.E.E.E.E.E.E.E.E.E.E.E.E.E.E.E.E.E.E.E.E.E.E.E.E.E.E."
};
