/* XPM */
static char *_e4258545c264dd29be5c16bcacc9b73ovGmVCMtKpuejBft[] = {
/* columns rows colors chars-per-pixel */
"64 64 133 2 ",
"   c #4C3517",
".  c #46361C",
"X  c #4D3619",
"o  c #4F391B",
"O  c #553615",
"+  c #5D3713",
"@  c #5E3813",
"#  c #513A1C",
"$  c #583C1B",
"%  c #603813",
"&  c #4D3F21",
"*  c #654216",
"=  c #6E4C19",
"-  c #74541C",
";  c #4F442E",
":  c #4F482E",
">  c #554224",
",  c #5B4522",
"<  c #5D4925",
"1  c #504228",
"2  c #584529",
"3  c #54492C",
"4  c #5E4A2C",
"5  c #5E4D32",
"6  c #555032",
"7  c #5B533C",
"8  c #604B26",
"9  c #614C2C",
"0  c #614D34",
"q  c #605038",
"w  c #625E39",
"e  c #64603C",
"r  c #69653E",
"t  c #5E5A43",
"y  c #656242",
"u  c #696644",
"i  c #6E6A41",
"p  c #65634B",
"a  c #6A6749",
"s  c #6E6B4B",
"d  c #716D45",
"f  c #706C4C",
"g  c #76724B",
"h  c #646353",
"j  c #6E6355",
"k  c #6E6C55",
"l  c #6C6C5D",
"z  c #716657",
"x  c #706E55",
"c  c #726758",
"v  c #776B5C",
"b  c #7A6E5E",
"n  c #747152",
"m  c #797556",
"M  c #7D7954",
"N  c #76735D",
"B  c #7E7A5C",
"V  c #767565",
"C  c #7B7060",
"Z  c #7A7969",
"A  c #927729",
"S  c #9A7C2B",
"D  c #807C5E",
"F  c #817564",
"G  c #837F63",
"H  c #827769",
"J  c #877B6A",
"K  c #887D6E",
"L  c #85805B",
"P  c #858164",
"I  c #88846E",
"U  c #8F8A6A",
"Y  c #908A67",
"T  c #928C6A",
"R  c #858373",
"E  c #8C8474",
"W  c #8E8A74",
"Q  c #8E8B7B",
"!  c #928676",
"~  c #948E72",
"^  c #948979",
"/  c #988C7B",
"(  c #989276",
")  c #96927A",
"_  c #98937C",
"`  c #9E997D",
"'  c #A29B7C",
"]  c #969282",
"[  c #9C9180",
"{  c #9F9A85",
"}  c #9F9B8B",
"|  c #A69B8B",
" . c #A7A182",
".. c #ABA585",
"X. c #AFA88A",
"o. c #B4AD8E",
"O. c #ABA695",
"+. c #B5AD9A",
"@. c #BAB295",
"#. c #BDB49D",
"$. c #BAB2A1",
"%. c #C2B7A5",
"&. c #C0B8A0",
"*. c #C4BDAC",
"=. c #CAC3AD",
"-. c #D0C7AE",
";. c #CBC4B0",
":. c #D0C5B3",
">. c #D3C8B6",
",. c #D3CBB9",
"<. c #D8CCBA",
"1. c #DBD2BC",
"2. c #E0D6BF",
"3. c #DCD1C0",
"4. c #E0D7C2",
"5. c #E1D8C2",
"6. c #E3DAC5",
"7. c #E7DDCA",
"8. c #E9DFCA",
"9. c #EAE0CC",
"0. c #ECE1CF",
"q. c #EEE3D1",
"w. c #F0E6D4",
"e. c #F2E8D3",
"r. c #F6EBD7",
"t. c #F5EBD8",
"y. c #F7EDDA",
"u. c #F8EDDA",
"i. c #FAEFDC",
"p. c #FBF0DD",
"a. c #FCF1DF",
"s. c #FEF3E0",
"d. c #FFF4E1",
/* pixels */
"d.d.d.d.d.d.d.d.d.d.d.d.d.d.d.d.d.d.d.d.d.d.d.d.d.d.d.d.d.d.d.d.d.d.d.d.d.d.d.d.d.d.d.d.d.d.d.d.d.d.d.d.d.d.d.d.d.d.d.d.d.d.d.d.",
"d.d.d.d.d.d.d.d.d.d.d.d.d.d.d.d.d.d.d.d.d.d.d.d.d.d.d.d.d.d.d.d.d.d.d.d.d.d.d.d.d.d.d.d.d.d.d.d.d.d.d.d.d.d.d.d.d.d.d.d.d.d.d.d.",
"d.d.d.d.d.d.d.d.d.d.d.d.d.d.d.d.d.d.d.d.d.d.d.d.d.d.d.d.d.d.d.d.d.d.d.d.d.d.d.d.d.d.d.d.d.d.d.d.d.d.d.d.d.d.d.d.d.d.d.d.d.d.d.d.",
"d.d.d.d.d.d.d.d.d.d.d.d.d.d.d.d.d.d.d.d.d.d.d.d.d.d.d.d.d.d.d.d.d.d.d.d.d.d.d.d.d.d.d.d.d.d.d.d.d.d.d.d.d.d.d.d.d.d.d.d.d.d.d.d.",
"d.d.d.d.d.d.d.d.d.d.d.d.d.d.d.d.d.d.d.d.d.d.d.d.d.d.d.d.d.d.d.d.d.d.d.d.d.d.d.d.d.d.d.d.d.d.d.d.d.d.d.d.d.d.d.d.d.d.d.d.d.d.d.d.",
"d.d.d.d.d.d.d.d.d.d.d.d.d.d.d.d.d.d.d.d.d.d.d.d.d.d.d.d.d.d.d.d.d.d.d.d.d.d.d.d.d.d.d.d.d.d.d.d.d.d.d.d.d.d.d.d.d.d.d.d.d.d.d.d.",
"d.d.d.d.d.d.d.d.d.d.d.d.d.d.d.d.d.d.d.d.d.d.d.d.d.d.d.d.u.2.o.@.,.;.7.a.d.d.d.d.d.d.d.d.d.d.d.d.d.d.d.d.d.d.d.d.d.d.d.d.d.d.d.d.",
"d.d.d.d.d.d.d.d.d.d.d.d.d.d.d.d.d.d.d.d.d.d.d.d.d.d.5.( n ' i i P k k +.` ,.d.d.d.d.d.d.d.d.d.d.d.d.d.d.d.d.d.d.d.d.d.d.d.d.d.d.",
"d.d.d.d.d.d.d.d.d.d.d.d.d.d.d.d.d.d.d.d.d.d.d.d.s.*.+.s s B i i s k k ) s s ~ a.d.d.d.d.d.d.d.d.d.d.d.d.d.d.d.d.d.d.d.d.d.d.d.d.",
"d.d.d.d.d.d.d.d.d.d.d.d.d.d.d.d.d.d.d.d.d.d.d.s.$.l R B a 6 < > 2 7 7 u s s m  .5.d.d.d.d.d.d.d.d.d.d.d.d.d.d.d.d.d.d.d.d.d.d.d.",
"d.d.d.d.d.d.d.d.d.d.d.d.d.d.d.d.d.d.d.d.d.d.d.*.l l l 7 $ O % + % O + O 3 s U i g e.d.d.d.d.d.d.d.d.d.d.d.d.d.d.d.d.d.d.d.d.d.d.",
"d.d.d.d.d.d.d.d.d.d.d.d.d.d.d.d.d.d.d.d.d.d.9.B V h ; + % O @ + % O % + + 1 r i i ' d.d.d.d.d.d.d.d.d.d.d.d.d.d.d.d.d.d.d.d.d.d.",
"d.d.d.d.d.d.d.d.d.d.d.d.d.d.d.d.d.d.d.d.d.u.D s a o O + @ O + + % O + + % O # r i ' u.d.d.d.d.d.d.d.d.d.d.d.d.d.d.d.d.d.d.d.d.d.",
"d.d.d.d.d.d.d.d.d.d.d.d.d.d.d.d.d.d.d.d.d.6.B s : + O + + O + + % O + + % O + & f W N y.d.d.d.d.d.d.d.d.d.d.d.d.d.d.d.d.d.d.d.d.",
"d.d.d.d.d.d.d.d.d.d.d.d.d.d.d.d.d.d.d.d.d.O.V p   + O + + O + + % O + + % O % O t k k =.d.d.d.d.d.d.d.d.d.d.d.d.d.d.d.d.d.d.d.d.",
"d.d.d.d.d.d.d.d.d.d.d.d.d.d.d.d.d.d.d.d.d.] l 7 O + O + + O + + % O + + % O % + 7 k k ) s.d.d.d.d.d.d.d.d.d.d.d.d.d.d.d.d.d.d.d.",
"d.d.d.d.d.d.d.d.d.d.d.d.d.d.d.d.d.d.d.d.d.Q l q O + O + % O + + % O + + + O % + 5 k k W s.d.d.d.d.d.d.d.d.d.d.d.d.d.d.d.d.d.d.d.",
"d.d.d.d.d.d.d.d.d.d.d.d.d.d.d.d.d.d.d.d.d.O.l > + + O + % O + + % O + + + O % + 4 l Z ;.d.d.d.d.d.d.d.d.d.d.d.d.d.d.d.d.d.d.d.d.",
"d.d.d.d.d.d.d.d.d.d.d.d.d.d.d.d.d.d.d.d.d.] l 0 + + O + + O + + % O + % + O % + X l l O.d.d.d.d.d.d.d.d.d.d.d.d.d.d.d.d.d.d.d.d.",
"d.d.d.d.d.d.d.d.d.d.d.d.d.d.d.d.d.d.d.d.a.V l > + + O + % O + + % O + % + O % + X l l O.d.d.d.d.d.d.d.d.d.d.d.d.d.d.d.d.d.d.d.d.",
"d.d.d.d.d.d.d.d.d.d.d.d.d.d.d.d.d.d.d.d.w.l l   + + O + % O + + % O + % + O + + # l l +.d.d.d.d.d.d.d.d.d.d.d.d.d.d.d.d.d.d.d.d.",
"d.d.d.d.d.d.d.d.d.d.d.d.d.d.d.d.d.d.d.d.a.I p # + % O + % O + + % O + + + O + + , r u T d.d.d.d.d.d.d.d.d.d.d.d.d.d.d.d.d.d.d.d.",
"d.d.d.d.d.d.d.d.d.d.d.d.d.d.d.d.d.d.d.d.d.T i < + + O + % O + + % O + + + O + + , i i i a.d.d.d.d.d.d.d.d.d.d.d.d.d.d.d.d.d.d.d.",
"d.d.d.d.d.d.d.d.d.d.d.d.d.d.d.d.d.d.d.d.d.Y i o % + O + % O O % + O + + + O + + X i i i a.d.d.d.d.d.d.d.d.d.d.d.d.d.d.d.d.d.d.d.",
"d.d.d.d.d.d.d.d.d.d.d.d.d.d.d.d.d.d.d.d.d.T i o % + O + % O O % + O @ % * O + +   i i g s.d.d.d.d.d.d.d.d.d.d.d.d.d.d.d.d.d.d.d.",
"d.d.d.d.d.d.d.d.d.d.d.d.d.d.d.d.d.d.d.d.d. .i < % + O + % O O % + O % S A = + +   y y P 1.d.d.d.d.d.d.d.d.d.d.d.d.d.d.d.d.d.d.d.",
"d.d.d.d.d.d.d.d.d.d.d.d.d.d.d.d.d.d.d.d.d._ a 4 % + O + % + O % + O % A A - + +   s s s ,.d.d.d.d.d.d.d.d.d.d.d.d.d.d.d.d.d.d.d.",
"d.d.d.d.d.d.d.d.d.d.d.d.d.d.d.d.d.d.d.d.s.x k 4 + + O + % + O % + O % = - + + +   u s s 4.d.d.d.d.d.d.d.d.d.d.d.d.d.d.d.d.d.d.d.",
"d.d.d.d.d.d.d.d.d.d.d.d.d.d.d.d.d.d.d.d.<.k k o + % O + % + O % + O % % + O + %   a s s 8.d.d.d.d.d.d.d.d.d.d.d.d.d.d.d.d.d.d.d.",
"d.d.d.d.d.d.d.d.d.d.d.d.d.d.d.d.d.d.d.d.a.Q l 4 + + O + % + O % + O % % + O % % X a a G p.d.d.d.d.d.d.d.d.d.d.d.d.d.d.d.d.d.d.d.",
"d.d.d.d.d.d.d.d.d.d.d.d.d.d.d.d.d.d.d.d.d.E l 0 + % O + + + O + % O % % + O % + X h l l } d.d.d.d.d.d.d.d.d.d.d.d.d.d.d.d.d.d.d.",
"d.d.d.d.d.d.d.d.d.d.d.d.d.d.d.d.d.d.d.d.u.V l 2 + % O + + + O + % O % % + O + % X l l l R d.d.d.d.d.d.d.d.d.d.d.d.d.d.d.d.d.d.d.",
"d.d.d.d.d.d.d.d.d.d.d.d.d.d.d.d.d.d.d.d.y.x p > + + O % + @ O + % O % % + O + % X l l l } d.d.d.d.d.d.d.d.d.d.d.d.d.d.d.d.d.d.d.",
"d.d.d.d.d.d.d.d.d.d.d.d.d.d.d.d.d.d.d.d.t.s s 8 + + O % + + O + % O % % + O + + X h l l >.d.d.d.d.d.d.d.d.d.d.d.d.d.d.d.d.d.d.d.",
"d.d.d.d.d.d.d.d.d.d.d.d.d.d.d.d.d.d.d.d.=.s s 4 + + O % + + O + % O % % + O + % X s a k ` s.d.d.d.d.d.d.d.d.d.d.d.d.d.d.d.d.d.d.",
"d.d.d.d.d.d.d.d.d.d.d.d.d.d.d.d.d.d.d.d.&.s s 4 + + O % % + O + % O % % + O + % X s s s s u.d.d.d.d.d.d.d.d.d.d.d.d.d.d.d.d.d.d.",
"d.d.d.d.d.d.d.d.d.d.d.d.d.d.d.d.d.d.d.d.4.s u > + + O % % % O + % O % % + O + % X s s s P s.d.d.d.d.d.d.d.d.d.d.d.d.d.d.d.d.d.d.",
"d.d.d.d.d.d.d.d.d.d.d.d.d.d.d.d.d.d.d.d.-.i i 8 % + O % + + O % % O % % + O + +   w u i X.d.d.d.d.d.d.d.d.d.d.d.d.d.d.d.d.d.d.d.",
"d.d.d.d.d.d.d.d.d.d.d.d.d.d.d.d.d.d.d.d.@.i i 8 % + O % % % O + + O % % O O + +   r i i L s.d.d.d.d.d.d.d.d.d.d.d.d.d.d.d.d.d.d.",
"d.d.d.d.d.d.d.d.d.d.d.d.d.d.d.d.d.d.d.d.o.i i 8 % + O % % % O + + O % % O + + +   r i i #.d.d.d.d.d.d.d.d.d.d.d.d.d.d.d.d.d.d.d.",
"d.d.d.d.d.d.d.d.d.d.d.d.d.d.d.d.d.d.d.d.#.s u > % + O % % + O + % O + + O + % + $ w w M r.d.d.d.d.d.d.d.d.d.d.d.d.d.d.d.d.d.d.d.",
"d.d.d.d.d.d.d.d.d.d.d.d.d.d.d.d.d.d.d.d.{ k k 9 % + O % % + O + % O + + O + % + < i i g a.d.d.d.d.d.d.d.d.d.d.d.d.d.d.d.d.d.d.d.",
"d.d.d.d.d.d.d.d.d.d.d.d.d.d.d.d.d.d.d.d.{ k k 9 % + O O @ % O + % O + + O + + + $ i i d a.d.d.d.d.d.d.d.d.d.d.d.d.d.d.d.d.d.d.d.",
"d.d.d.d.d.d.d.d.d.d.d.d.d.d.d.d.d.d.d.d.=.N k 1 # # X . o #   o #   # X   X X X > e i ..d.d.d.d.d.d.d.d.d.d.d.d.d.d.d.d.d.d.d.d.",
"d.d.d.d.d.d.d.d.d.d.d.d.d.d.d.d.d.d.d.d.a./ F F F F F F F F F F F F F F F F F F F F J q.d.d.d.d.d.d.d.d.d.d.d.d.d.d.d.d.d.d.d.d.",
"d.d.d.d.d.d.d.d.d.d.d.d.d.d.d.d.d.d.d.d.$.b b b b b b b b b b b b b b b b b b b b b b [ s.d.d.d.d.d.d.d.d.d.d.d.d.d.d.d.d.d.d.d.",
"d.d.d.d.d.d.d.d.d.d.d.d.d.d.d.d.d.d.d.d.| j j j j j j j j j j j j j j j j j j j j j j j a.d.d.d.d.d.d.d.d.d.d.d.d.d.d.d.d.d.d.d.",
"d.d.d.d.d.d.d.d.d.d.d.d.d.d.d.d.d.d.d.d.| j j j j j j j j j j j j j j j j j j j j j j j a.d.d.d.d.d.d.d.d.d.d.d.d.d.d.d.d.d.d.d.",
"d.d.d.d.d.d.d.d.d.d.d.d.d.d.d.d.d.d.d.:.! v v v v v v v v v v v v v v v v v v v v v v v %.s.d.d.d.d.d.d.d.d.d.d.d.d.d.d.d.d.d.d.",
"d.d.d.d.d.d.d.d.d.d.d.d.d.d.d.d.d.d.<.F F F F F F F F F F F F F F F F F F F F F F F F F F #.d.d.d.d.d.d.d.d.d.d.d.d.d.d.d.d.d.d.",
"d.d.d.d.d.d.d.d.d.d.d.d.d.d.d.d.d.d.K z z z z z z z z z z z z z z z z z z z z z z z z z z c q.d.d.d.d.d.d.d.d.d.d.d.d.d.d.d.d.d.",
"d.d.d.d.d.d.d.d.d.d.d.d.d.d.d.d.d.d.H j j j j j j j j j j j j j j j j j j j j j j j j j j j 0.d.d.d.d.d.d.d.d.d.d.d.d.d.d.d.d.d.",
"d.d.d.d.d.d.d.d.d.d.d.d.d.d.d.d.d.s.H j j j j j j j j j j j j j j j j j j j j j j j j j j j 9.d.d.d.d.d.d.d.d.d.d.d.d.d.d.d.d.d.",
"d.d.d.d.d.d.d.d.d.d.d.d.d.d.d.d.a.| F F F F F F F F F F F F F F F F F F F F F F F F F F F F ! w.d.d.d.d.d.d.d.d.d.d.d.d.d.d.d.d.",
"d.d.d.d.d.d.d.d.d.d.d.d.d.d.d.d.+.C C C C C C C C C C C C C C C C C C C C C C C C C C C C C C ^ a.d.d.d.d.d.d.d.d.d.d.d.d.d.d.d.",
"d.d.d.d.d.d.d.d.d.d.d.d.d.d.d.d.E j j j j j j j j j j j j j j j j j j j j j j j j j j j j j j j i.d.d.d.d.d.d.d.d.d.d.d.d.d.d.d.",
"d.d.d.d.d.d.d.d.d.d.d.d.d.d.d.d.E j j j j j j j j j j j j j j j j j j j j j j j j j j j j j j j i.d.d.d.d.d.d.d.d.d.d.d.d.d.d.d.",
"d.d.d.d.d.d.d.d.d.d.d.d.d.d.d.d.3.>.>.>.>.>.>.>.>.>.>.>.>.>.>.>.>.>.>.>.>.>.>.>.>.>.>.>.>.>.>.>.a.d.d.d.d.d.d.d.d.d.d.d.d.d.d.d.",
"d.d.d.d.d.d.d.d.d.d.d.d.d.d.d.d.d.d.d.d.d.d.d.d.d.d.d.d.d.d.d.d.d.d.d.d.d.d.d.d.d.d.d.d.d.d.d.d.d.d.d.d.d.d.d.d.d.d.d.d.d.d.d.d.",
"d.d.d.d.d.d.d.d.d.d.d.d.d.d.d.d.d.d.d.d.d.d.d.d.d.d.d.d.d.d.d.d.d.d.d.d.d.d.d.d.d.d.d.d.d.d.d.d.d.d.d.d.d.d.d.d.d.d.d.d.d.d.d.d.",
"d.d.d.d.d.d.d.d.d.d.d.d.d.d.d.d.d.d.d.d.d.d.d.d.d.d.d.d.d.d.d.d.d.d.d.d.d.d.d.d.d.d.d.d.d.d.d.d.d.d.d.d.d.d.d.d.d.d.d.d.d.d.d.d.",
"d.d.d.d.d.d.d.d.d.d.d.d.d.d.d.d.d.d.d.d.d.d.d.d.d.d.d.d.d.d.d.d.d.d.d.d.d.d.d.d.d.d.d.d.d.d.d.d.d.d.d.d.d.d.d.d.d.d.d.d.d.d.d.d.",
"d.d.d.d.d.d.d.d.d.d.d.d.d.d.d.d.d.d.d.d.d.d.d.d.d.d.d.d.d.d.d.d.d.d.d.d.d.d.d.d.d.d.d.d.d.d.d.d.d.d.d.d.d.d.d.d.d.d.d.d.d.d.d.d.",
"d.d.d.d.d.d.d.d.d.d.d.d.d.d.d.d.d.d.d.d.d.d.d.d.d.d.d.d.d.d.d.d.d.d.d.d.d.d.d.d.d.d.d.d.d.d.d.d.d.d.d.d.d.d.d.d.d.d.d.d.d.d.d.d."
};
